<svg width="24" height="24" viewBox="0 0 24 24" fill="none" xmlns="http://www.w3.org/2000/svg">
<path fill-rule="evenodd" clip-rule="evenodd" d="M24 12C24 18.6274 18.6274 24 12 24C5.37258 24 0 18.6274 0 12C0 5.37258 5.37258 0 12 0C18.6274 0 24 5.37258 24 12ZM16.0305 16.0304C15.6791 16.3819 15.1092 16.3819 14.7577 16.0304L12 13.2727L9.24228 16.0305C8.89081 16.3819 8.32096 16.3819 7.96949 16.0305C7.61802 15.679 7.61802 15.1091 7.96949 14.7577L10.7272 11.9999L7.96951 9.24221C7.61803 8.89074 7.61803 8.32089 7.96951 7.96942C8.32098 7.61795 8.89083 7.61795 9.2423 7.96942L12 10.7271L14.7577 7.96943C15.1092 7.61796 15.679 7.61796 16.0305 7.96943C16.382 8.3209 16.382 8.89075 16.0305 9.24222L13.2728 11.9999L16.0305 14.7576C16.382 15.1091 16.382 15.679 16.0305 16.0304Z" fill="#0F1113"/>
</svg>
