<?xml version="1.0" encoding="utf-8"?>
<!-- Generator: Adobe Illustrator 27.5.0, SVG Export Plug-In . SVG Version: 6.00 Build 0)  -->
<svg version="1.1" id="Layer_1" xmlns="http://www.w3.org/2000/svg" xmlns:xlink="http://www.w3.org/1999/xlink" x="0px" y="0px"
	 viewBox="0 0 20 20" style="enable-background:new 0 0 20 20;" xml:space="preserve">
<style type="text/css">
	.st0{fill:#6C717B;}
</style>
<path class="st0" d="M8.6,19c-0.3-0.1-0.5-0.4-0.5-0.7c0-2.6,0-5.3,0-7.9c0-0.4-0.1-0.7-0.4-1C5.6,7.1,3.5,4.8,1.4,2.5
	C1.1,2.1,1,1.6,1.3,1.3S1.9,1,2.2,1C2.6,1,3,1,3.4,1C4.2,1,5,1,5.9,1c0.8,0,1.6,0,2.5,0c0.8,0,1.6,0,2.5,0s1.6,0,2.5,0s1.6,0,2.5,0
	c0.7,0,1.5,0,2.2,0c0.5,0,0.8,0.2,0.9,0.6c0.1,0.3,0,0.6-0.2,0.8c-0.6,0.6-1.1,1.2-1.7,1.9C15.5,6,14,7.7,12.4,9.4
	c-0.3,0.3-0.4,0.6-0.4,1c0,1.6,0,3.2,0,4.7c0,0.4-0.1,0.7-0.3,1c-0.8,0.9-1.6,1.8-2.4,2.7C9.2,18.9,9.1,18.9,9,19
	C8.8,19,8.7,19,8.6,19z"/>
</svg>
