<svg width="20" height="20" viewBox="0 0 20 20" fill="none" xmlns="http://www.w3.org/2000/svg">
<path fill-rule="evenodd" clip-rule="evenodd" d="M10.75 0.75C10.75 0.335786 10.4142 0 10 0C9.58579 0 9.25 0.335786 9.25 0.75V2.75C9.25 3.16421 9.58579 3.5 10 3.5C10.4142 3.5 10.75 3.16421 10.75 2.75V0.75ZM1.53033 3.21967C1.23744 2.92678 0.762563 2.92678 0.46967 3.21967C0.176777 3.51256 0.176777 3.98744 0.46967 4.28033L1.96967 5.78033C2.26256 6.07322 2.73744 6.07322 3.03033 5.78033C3.32322 5.48744 3.32322 5.01256 3.03033 4.71967L1.53033 3.21967ZM19.5303 4.28033C19.8232 3.98744 19.8232 3.51256 19.5303 3.21967C19.2374 2.92678 18.7626 2.92678 18.4697 3.21967L16.9697 4.71967C16.6768 5.01256 16.6768 5.48744 16.9697 5.78033C17.2626 6.07322 17.7374 6.07322 18.0303 5.78033L19.5303 4.28033ZM18.8772 10.3212C20.3743 11.7543 20.3743 14.2459 18.8772 15.679C16.8134 17.6546 13.6042 20.0001 10 20.0001C6.3958 20.0001 3.18661 17.6546 1.12281 15.679C-0.374268 14.2459 -0.374269 11.7543 1.12281 10.3212C3.18661 8.34563 6.3958 6.00012 10 6.00012C13.6042 6.00012 16.8134 8.34563 18.8772 10.3212ZM13 13.0001C13 14.657 11.6568 16.0001 9.99997 16.0001C8.34311 16.0001 6.99997 14.657 6.99997 13.0001C6.99997 11.3433 8.34311 10.0001 9.99997 10.0001C11.6568 10.0001 13 11.3433 13 13.0001Z" fill="#CFD1D5"/>
</svg>
