<svg width="18" height="15" viewBox="0 0 18 15" fill="none" xmlns="http://www.w3.org/2000/svg">
<path d="M6.83079 8.29737C6.92392 8.29686 7.01706 8.29635 7.11301 8.29582C7.21559 8.29572 7.31818 8.29562 7.42387 8.29551C7.53158 8.29507 7.63929 8.29462 7.75026 8.29416C8.0461 8.29307 8.34193 8.2924 8.63778 8.292C8.82246 8.29173 9.00714 8.29136 9.19182 8.29096C9.76924 8.28973 10.3467 8.28886 10.9241 8.28851C11.5914 8.28811 12.2588 8.28653 12.9261 8.28392C13.4415 8.28198 13.9569 8.28107 14.4723 8.28095C14.7803 8.28086 15.0884 8.28032 15.3964 8.27872C15.7397 8.27696 16.083 8.27735 16.4263 8.27793C16.5289 8.2771 16.6315 8.27628 16.7372 8.27542C16.8303 8.27592 16.9234 8.27642 17.0194 8.27694C17.1413 8.27674 17.1413 8.27674 17.2656 8.27654C17.3298 8.28759 17.394 8.29863 17.4601 8.31001C17.6401 8.58001 17.6401 8.58001 17.6176 8.81626C17.5842 8.92207 17.5842 8.92207 17.5501 9.03001C17.3121 9.14902 17.1291 9.12872 16.8638 9.12564C16.7736 9.12483 16.6833 9.12401 16.5903 9.12318C16.521 9.12213 16.4516 9.12109 16.3801 9.12001C16.3811 9.17068 16.3821 9.22135 16.3831 9.27355C16.3931 9.80207 16.3999 10.3306 16.4048 10.8591C16.4071 11.0563 16.4101 11.2534 16.414 11.4505C16.4195 11.7342 16.4221 12.0179 16.424 12.3017C16.4264 12.3894 16.4287 12.4772 16.4311 12.5676C16.4311 12.6505 16.4311 12.7333 16.4312 12.8187C16.4322 12.891 16.4332 12.9634 16.4342 13.0379C16.3538 13.368 16.1998 13.5995 15.9301 13.8C15.6664 13.8763 15.4143 13.8721 15.1412 13.867C15.0627 13.8677 14.9842 13.8683 14.9033 13.869C14.6445 13.8705 14.3858 13.868 14.1269 13.8654C13.9468 13.8653 13.7667 13.8654 13.5866 13.8657C13.2095 13.8657 12.8324 13.8638 12.4552 13.8605C11.9717 13.8564 11.4882 13.8563 11.0047 13.8576C10.6329 13.8582 10.2612 13.857 9.88941 13.8552C9.7111 13.8545 9.5328 13.8543 9.35449 13.8546C9.10541 13.8546 8.85645 13.8524 8.60738 13.8495C8.53364 13.8499 8.4599 13.8503 8.38393 13.8508C8.06151 13.8448 7.86934 13.8293 7.60714 13.6338C7.40205 13.3438 7.36891 13.113 7.36988 12.7676C7.36989 12.6865 7.36989 12.6055 7.3699 12.5219C7.37037 12.4347 7.37083 12.3475 7.37131 12.2577C7.37144 12.1682 7.37156 12.0787 7.37169 11.9865C7.3722 11.7003 7.37333 11.4142 7.37447 11.1281C7.37492 10.9343 7.37533 10.7404 7.3757 10.5465C7.3767 10.071 7.3782 9.5955 7.3801 9.12001C7.27603 9.12315 7.27603 9.12315 7.16986 9.12634C7.0796 9.12797 6.98934 9.12959 6.89635 9.13126C6.80655 9.13335 6.71676 9.13544 6.62424 9.13759C6.3901 9.12001 6.3901 9.12001 6.2101 8.94001C6.19885 8.65876 6.19885 8.65876 6.2101 8.40001C6.43303 8.28855 6.58135 8.2982 6.83079 8.29737ZM8.1901 9.12001C8.1901 10.4268 8.1901 11.7336 8.1901 13.08C10.6255 13.08 13.0609 13.08 15.5701 13.08C15.5701 11.7732 15.5701 10.4664 15.5701 9.12001C13.1347 9.12001 10.6993 9.12001 8.1901 9.12001Z" fill="#1AA484"/>
<mask id="path-2-inside-1_17583_42336" fill="white">
<path d="M2.36249 5.35126C2.89096 5.71158 3.181 6.16395 3.32999 6.78001C3.34879 6.99616 3.34359 7.19253 3.32999 7.41001C3.40459 7.43264 3.47919 7.45526 3.55605 7.47857C3.91176 7.60484 4.23849 7.75979 4.57312 7.93314C4.66491 7.97778 4.66491 7.97778 4.75857 8.02331C5.19744 8.25128 5.19744 8.25128 5.3114 8.54802C5.30999 8.76001 5.30999 8.76001 5.21437 8.92876C4.94674 9.08416 4.79892 9.01576 4.49999 8.94001C4.21526 8.80933 3.94487 8.65687 3.67312 8.50126C3.60055 8.46101 3.52798 8.42075 3.45322 8.37927C2.65961 7.932 2.65961 7.932 2.51437 7.45783C2.47055 7.27575 2.42957 7.09316 2.38851 6.91044C2.28479 6.46745 2.28479 6.46745 1.97999 6.15001C1.75923 6.06085 1.75923 6.06085 1.52999 6.06001C1.32954 6.20471 1.26737 6.29113 1.22097 6.53568C1.21921 7.78674 1.50765 9.61571 2.24999 10.65C2.7919 11.015 3.60164 10.9316 4.22999 10.92C4.27454 11.321 4.27454 11.321 4.31999 11.73C4.04994 11.7374 3.7801 11.7427 3.50999 11.7469C3.43447 11.7492 3.35894 11.7514 3.28113 11.7537C2.68003 11.7607 2.17111 11.6844 1.69136 11.3015C1.64368 11.2443 1.59599 11.1871 1.54687 11.1281C1.4736 11.0441 1.4736 11.0441 1.39886 10.9583C0.607925 9.71486 0.200422 7.63665 0.416243 6.18939C0.510203 5.80076 0.666188 5.58484 0.989992 5.34001C1.45503 5.185 1.89953 5.19101 2.36249 5.35126Z"/>
</mask>
<path d="M2.36249 5.35126C2.89096 5.71158 3.181 6.16395 3.32999 6.78001C3.34879 6.99616 3.34359 7.19253 3.32999 7.41001C3.40459 7.43264 3.47919 7.45526 3.55605 7.47857C3.91176 7.60484 4.23849 7.75979 4.57312 7.93314C4.66491 7.97778 4.66491 7.97778 4.75857 8.02331C5.19744 8.25128 5.19744 8.25128 5.3114 8.54802C5.30999 8.76001 5.30999 8.76001 5.21437 8.92876C4.94674 9.08416 4.79892 9.01576 4.49999 8.94001C4.21526 8.80933 3.94487 8.65687 3.67312 8.50126C3.60055 8.46101 3.52798 8.42075 3.45322 8.37927C2.65961 7.932 2.65961 7.932 2.51437 7.45783C2.47055 7.27575 2.42957 7.09316 2.38851 6.91044C2.28479 6.46745 2.28479 6.46745 1.97999 6.15001C1.75923 6.06085 1.75923 6.06085 1.52999 6.06001C1.32954 6.20471 1.26737 6.29113 1.22097 6.53568C1.21921 7.78674 1.50765 9.61571 2.24999 10.65C2.7919 11.015 3.60164 10.9316 4.22999 10.92C4.27454 11.321 4.27454 11.321 4.31999 11.73C4.04994 11.7374 3.7801 11.7427 3.50999 11.7469C3.43447 11.7492 3.35894 11.7514 3.28113 11.7537C2.68003 11.7607 2.17111 11.6844 1.69136 11.3015C1.64368 11.2443 1.59599 11.1871 1.54687 11.1281C1.4736 11.0441 1.4736 11.0441 1.39886 10.9583C0.607925 9.71486 0.200422 7.63665 0.416243 6.18939C0.510203 5.80076 0.666188 5.58484 0.989992 5.34001C1.45503 5.185 1.89953 5.19101 2.36249 5.35126Z" fill="#1AA484"/>
<path d="M2.36249 5.35126L2.92583 4.52504L2.81564 4.44991L2.6896 4.40628L2.36249 5.35126ZM3.32999 6.78001L4.32623 6.69338L4.3197 6.61825L4.30197 6.54495L3.32999 6.78001ZM3.32999 7.41001L2.33194 7.34764L2.28258 8.13734L3.03978 8.36698L3.32999 7.41001ZM3.55605 7.47857L3.89058 6.53618L3.86859 6.52838L3.84626 6.52161L3.55605 7.47857ZM4.57312 7.93314L4.11313 8.82106L4.1244 8.8269L4.13582 8.83246L4.57312 7.93314ZM4.75857 8.02331L5.21953 7.1359L5.20778 7.12979L5.19586 7.124L4.75857 8.02331ZM5.3114 8.54802L6.31138 8.55466L6.31263 8.3658L6.24492 8.1895L5.3114 8.54802ZM5.21437 8.92876L5.7165 9.79355L5.95081 9.6575L6.08439 9.42178L5.21437 8.92876ZM4.49999 8.94001L4.08287 9.84886L4.16585 9.88695L4.25436 9.90938L4.49999 8.94001ZM3.67312 8.50126L4.17006 7.63337L4.15823 7.62681L3.67312 8.50126ZM3.45322 8.37927L2.96222 9.25046L2.96811 9.25373L3.45322 8.37927ZM2.51437 7.45783L1.54212 7.69178L1.54927 7.72149L1.55822 7.7507L2.51437 7.45783ZM2.38851 6.91044L3.36421 6.69114L3.36218 6.68249L2.38851 6.91044ZM1.97999 6.15001L2.70131 5.45741L2.55303 5.30298L2.35452 5.2228L1.97999 6.15001ZM1.52999 6.06001L1.53361 5.06002L1.20841 5.05884L0.944715 5.24918L1.52999 6.06001ZM1.22097 6.53568L0.238498 6.34926L0.221101 6.44095L0.22097 6.53427L1.22097 6.53568ZM2.24999 10.65L1.43758 11.2331L1.54234 11.3791L1.69134 11.4794L2.24999 10.65ZM4.22999 10.92L5.22388 10.8096L5.12318 9.9033L4.21148 9.92018L4.22999 10.92ZM4.31999 11.73L4.3472 12.7296L5.43393 12.7001L5.31388 11.6196L4.31999 11.73ZM3.50999 11.7469L3.49444 10.747L3.48724 10.7471L3.48005 10.7473L3.50999 11.7469ZM3.28113 11.7537L3.29275 12.7537L3.30191 12.7536L3.31107 12.7533L3.28113 11.7537ZM1.69136 11.3015L0.923266 11.9418L0.988225 12.0197L1.06751 12.083L1.69136 11.3015ZM1.54687 11.1281L2.31496 10.4878L2.30792 10.4794L2.3007 10.4711L1.54687 11.1281ZM1.39886 10.9583L0.555086 11.495L0.595523 11.5586L0.645028 11.6154L1.39886 10.9583ZM0.416243 6.18939L-0.555752 5.95438L-0.566239 5.99776L-0.572821 6.0419L0.416243 6.18939ZM0.989992 5.34001L0.673765 4.39133L0.51792 4.44328L0.386884 4.54236L0.989992 5.34001ZM1.79916 6.17749C2.10487 6.38593 2.26195 6.61786 2.35801 7.01508L4.30197 6.54495C4.10005 5.71004 3.67704 5.03723 2.92583 4.52504L1.79916 6.17749ZM2.33375 6.86664C2.34636 7.01169 2.34416 7.15213 2.33194 7.34764L4.32805 7.47239C4.34301 7.23293 4.35121 6.98063 4.32623 6.69338L2.33375 6.86664ZM3.03978 8.36698C3.11438 8.3896 3.18897 8.41222 3.26583 8.43553L3.84626 6.52161C3.7694 6.4983 3.6948 6.47568 3.62021 6.45305L3.03978 8.36698ZM3.22152 8.42095C3.51615 8.52554 3.79742 8.65751 4.11313 8.82106L5.03311 7.04521C4.67957 6.86206 4.30737 6.68414 3.89058 6.53618L3.22152 8.42095ZM4.13582 8.83246C4.22762 8.87709 4.22762 8.87709 4.32127 8.92263L5.19586 7.124C5.10221 7.07846 5.10221 7.07846 5.01042 7.03382L4.13582 8.83246ZM4.2976 8.91073C4.35358 8.93981 4.39742 8.96259 4.43506 8.98256C4.47276 9.00255 4.49712 9.01598 4.51372 9.02557C4.5304 9.03521 4.53152 9.03657 4.52414 9.03142C4.51575 9.02556 4.4948 9.01025 4.46841 8.98519C4.44061 8.95881 4.41373 8.92826 4.38978 8.8949C4.36676 8.86283 4.35261 8.83674 4.34611 8.82387C4.34055 8.81285 4.34021 8.81068 4.34697 8.82727C4.35407 8.84467 4.36259 8.86674 4.37788 8.90654L6.24492 8.1895C6.20975 8.09792 6.11007 7.78592 5.84524 7.53456C5.72643 7.4218 5.60291 7.34506 5.51442 7.29392C5.4269 7.24334 5.32109 7.18865 5.21953 7.1359L4.2976 8.91073ZM4.31142 8.54139C4.31124 8.56917 4.31111 8.58751 4.31087 8.60274C4.31063 8.61783 4.31039 8.62227 4.31045 8.62115C4.31063 8.61758 4.31299 8.57122 4.32919 8.50765C4.33717 8.47633 4.34654 8.44842 4.35578 8.42486C4.36454 8.40254 4.37194 8.38731 4.37456 8.38206C4.37684 8.37748 4.37662 8.37824 4.37071 8.38894C4.36465 8.39989 4.35705 8.41334 4.34435 8.43575L6.08439 9.42178C6.10759 9.38083 6.21463 9.20799 6.26724 9.00156C6.31673 8.80737 6.31102 8.60799 6.31138 8.55466L4.31142 8.54139ZM4.71223 8.06397C4.70755 8.0667 4.73415 8.05059 4.78584 8.03747C4.81144 8.03097 4.83869 8.02636 4.86651 8.02404C4.89407 8.02174 4.9175 8.02209 4.93506 8.02326C4.95197 8.02438 4.96188 8.02616 4.96199 8.02618C4.96209 8.02619 4.96023 8.02586 4.95591 8.02493C4.95156 8.02399 4.94539 8.02258 4.93679 8.02048C4.9182 8.01595 4.89628 8.01021 4.86238 8.0012C4.83113 7.99289 4.78983 7.98185 4.74562 7.97065L4.25436 9.90938C4.27434 9.91444 4.41626 9.95216 4.46338 9.96364C4.54476 9.98347 4.66427 10.0097 4.80277 10.0189C5.13413 10.0408 5.43387 9.95766 5.7165 9.79355L4.71223 8.06397ZM4.91712 8.03116C4.67778 7.92132 4.44257 7.78951 4.17001 7.63345L3.17622 9.36907C3.44717 9.52422 3.75273 9.69734 4.08287 9.84886L4.91712 8.03116ZM4.15823 7.62681C4.08566 7.58655 4.01309 7.5463 3.93832 7.50482L2.96811 9.25373C3.04287 9.2952 3.11544 9.33546 3.18801 9.37572L4.15823 7.62681ZM3.9442 7.5081C3.73858 7.39222 3.61036 7.31974 3.5175 7.2624C3.42274 7.2039 3.41934 7.19358 3.44112 7.21495C3.48226 7.25533 3.51205 7.30476 3.52417 7.33195C3.52604 7.33617 3.52258 7.32903 3.51234 7.29839C3.50168 7.26647 3.4897 7.22758 3.47052 7.16495L1.55822 7.7507C1.61596 7.93921 1.71072 8.31896 2.04019 8.64233C2.17933 8.77888 2.33381 8.88206 2.46679 8.96417C2.60166 9.04744 2.77105 9.14269 2.96223 9.25044L3.9442 7.5081ZM3.48662 7.22387C3.44488 7.05044 3.40558 6.8754 3.36417 6.69115L1.41285 7.12974C1.45357 7.31091 1.49623 7.50107 1.54212 7.69178L3.48662 7.22387ZM3.36218 6.68249C3.3229 6.51472 3.26901 6.24895 3.14059 6.00989C3.00979 5.76642 2.81621 5.57707 2.70131 5.45741L1.25868 6.84262C1.3419 6.92929 1.37755 6.96689 1.40066 6.99368C1.41646 7.01199 1.39925 6.99458 1.37873 6.95639C1.35875 6.91921 1.3546 6.89748 1.36276 6.92583C1.37359 6.96347 1.38671 7.01827 1.41484 7.1384L3.36218 6.68249ZM2.35452 5.2228C2.27904 5.19231 2.12362 5.12517 1.95429 5.09131C1.78112 5.05667 1.61158 5.0603 1.53361 5.06002L1.52637 7.06001C1.55612 7.06012 1.57702 7.0602 1.59475 7.0604C1.61228 7.0606 1.62047 7.06086 1.6237 7.06099C1.62742 7.06115 1.6009 7.06024 1.56206 7.05247C1.52406 7.04487 1.50085 7.036 1.50797 7.03858C1.51239 7.04018 1.52138 7.04356 1.5388 7.05046C1.55637 7.05741 1.57692 7.0657 1.60547 7.07723L2.35452 5.2228ZM0.944715 5.24918C0.819712 5.33941 0.632571 5.48322 0.483247 5.70934C0.329694 5.94186 0.271368 6.17603 0.238498 6.34926L2.20344 6.7221C2.21697 6.65078 2.21293 6.71946 2.15217 6.81146C2.12342 6.855 2.09604 6.88271 2.08423 6.89368C2.0761 6.90123 2.08054 6.89592 2.11527 6.87085L0.944715 5.24918ZM0.22097 6.53427C0.219993 7.22877 0.2987 8.07204 0.48014 8.89055C0.658306 9.69429 0.953925 10.5592 1.43758 11.2331L3.0624 10.0669C2.80371 9.7065 2.58394 9.1398 2.43274 8.45771C2.28482 7.7904 2.22019 7.09366 2.22097 6.53709L0.22097 6.53427ZM1.69134 11.4794C2.17681 11.8064 2.72216 11.896 3.14082 11.924C3.54617 11.9511 3.99988 11.9244 4.24851 11.9198L4.21148 9.92018C3.83176 9.92722 3.56642 9.94802 3.27433 9.92848C2.99555 9.90983 2.86508 9.85862 2.80864 9.82061L1.69134 11.4794ZM3.23611 11.0304C3.28066 11.4314 3.28066 11.4314 3.32611 11.8404L5.31388 11.6196C5.26843 11.2105 5.26843 11.2105 5.22388 10.8096L3.23611 11.0304ZM4.29278 10.7304C4.02764 10.7376 3.76184 10.7428 3.49444 10.747L3.52555 12.7468C3.79835 12.7425 4.07224 12.7371 4.3472 12.7296L4.29278 10.7304ZM3.48005 10.7473C3.40453 10.7496 3.329 10.7519 3.25118 10.7542L3.31107 12.7533C3.38888 12.751 3.46441 12.7487 3.53993 12.7464L3.48005 10.7473ZM3.2695 10.7538C2.76584 10.7597 2.53255 10.6934 2.31521 10.5199L1.06751 12.083C1.80968 12.6754 2.59422 12.7618 3.29275 12.7537L3.2695 10.7538ZM2.45945 10.6611C2.41177 10.6039 2.36409 10.5467 2.31496 10.4878L0.778774 11.7685C0.827901 11.8274 0.875584 11.8846 0.923266 11.9418L2.45945 10.6611ZM2.3007 10.4711C2.22744 10.387 2.22744 10.387 2.15269 10.3013L0.645028 11.6154C0.719772 11.7012 0.719771 11.7012 0.793035 11.7852L2.3007 10.4711ZM2.24263 10.4216C1.93109 9.93184 1.66725 9.22575 1.51003 8.45132C1.35306 7.67818 1.31872 6.91752 1.40531 6.33688L-0.572821 6.0419C-0.702054 6.90852 -0.640555 7.9106 -0.449989 8.84925C-0.259685 9.78661 0.0756979 10.7414 0.555086 11.495L2.24263 10.4216ZM1.38824 6.42439C1.41448 6.31583 1.43591 6.28469 1.44193 6.27591C1.45103 6.26262 1.48113 6.22233 1.5931 6.13767L0.386884 4.54236C0.17505 4.70252 -0.034743 4.89261 -0.208075 5.14565C-0.384493 5.40319 -0.488038 5.67432 -0.555752 5.95438L1.38824 6.42439ZM1.30622 6.2887C1.55728 6.20501 1.77559 6.20632 2.03538 6.29625L2.6896 4.40628C2.02348 4.1757 1.35279 4.16499 0.673765 4.39133L1.30622 6.2887Z" fill="#1AA484" mask="url(#path-2-inside-1_17583_42336)"/>
<path d="M12.2399 4.71C12.4407 4.84149 12.4407 4.84149 12.6168 5.01375C12.819 5.20755 12.9952 5.3635 13.2299 5.52C13.2811 5.46153 13.3323 5.40306 13.385 5.34282C13.4545 5.26764 13.524 5.19246 13.5955 5.115C13.6634 5.03983 13.7313 4.96465 13.8012 4.88719C14.1173 4.6526 14.2832 4.65889 14.6699 4.71C15.389 4.99327 16.0266 5.35332 16.3799 6.06C16.3911 6.30112 16.3966 6.53888 16.3968 6.78C16.3979 6.84636 16.399 6.91273 16.4001 6.9811C16.4006 7.1542 16.3909 7.32725 16.3799 7.5C16.1999 7.68 16.1999 7.68 15.9749 7.70813C15.9007 7.69885 15.8264 7.68957 15.7499 7.68C15.4982 7.30248 15.5438 6.96706 15.5372 6.52161C15.5037 6.22977 15.5037 6.22977 15.2904 6.03996C14.9996 5.86137 14.7174 5.73451 14.3999 5.61C14.3261 5.68251 14.2524 5.75502 14.1763 5.82973C14.0784 5.92342 13.9804 6.01705 13.8824 6.11063C13.8339 6.1586 13.7854 6.20657 13.7355 6.256C13.5913 6.39223 13.5913 6.39223 13.3199 6.6C12.934 6.55921 12.7119 6.31143 12.4424 6.05438C12.3968 6.01186 12.3512 5.96934 12.3043 5.92553C12.1923 5.82094 12.081 5.71555 11.9699 5.61C11.8572 5.6639 11.7448 5.7184 11.6324 5.77313C11.5698 5.80341 11.5071 5.83369 11.4426 5.86489C11.3472 5.91692 11.3472 5.91692 11.2499 5.97C11.1838 6.00562 11.1177 6.04124 11.0495 6.07793C10.8092 6.32201 10.8414 6.53451 10.8337 6.87C10.8173 7.47391 10.8173 7.47391 10.6199 7.77C10.3443 7.7925 10.3443 7.7925 10.0799 7.77C9.86297 7.55305 9.94537 6.98625 9.94361 6.68427C9.95386 6.27426 9.96756 5.96694 10.2374 5.63813C10.7776 5.15953 11.4889 4.60648 12.2399 4.71Z" fill="#1AA484"/>
<path d="M14.5801 1.19999C15.0916 1.84602 15.0855 2.46862 15.0301 3.26999C14.9471 3.62321 14.8414 3.90875 14.5801 4.16999C14.1701 4.11999 14.1701 4.11999 14.0401 3.98999C14.0207 3.6603 14.0228 3.40792 14.1357 3.09562C14.2525 2.71421 14.2183 2.49049 14.1301 2.09999C13.9776 1.85209 13.8685 1.76357 13.5852 1.6957C13.1912 1.6413 12.8006 1.61008 12.4201 1.73999C12.0369 2.27997 12.2405 3.19255 12.328 3.80718C12.3287 3.86751 12.3294 3.92784 12.3301 3.98999C12.2707 4.04939 12.2113 4.10879 12.1501 4.16999C11.9307 4.16999 11.9307 4.16999 11.7001 4.07999C11.3114 3.4552 11.2744 2.82102 11.3401 2.09999C11.4904 1.57516 11.7794 1.22556 12.2401 0.929992C13.0409 0.622585 13.8899 0.689236 14.5801 1.19999Z" fill="#1AA484"/>
<path d="M3.14156 9.28864C3.70995 9.2916 4.27145 9.32111 4.83741 9.37312C4.91897 9.37944 5.00053 9.38577 5.08456 9.39228C5.54095 9.43392 5.91213 9.48533 6.29991 9.75C6.65747 10.2488 6.62856 10.6864 6.56991 11.28C6.48892 11.7069 6.38632 12.1245 6.27218 12.5436C6.22048 12.7337 6.17094 12.9244 6.12167 13.1152C5.87683 14.0431 5.87683 14.0431 5.66991 14.25C5.44491 14.2725 5.44491 14.2725 5.21991 14.25C5.16051 14.1906 5.10111 14.1312 5.03991 14.07C5.08 13.3398 5.30004 12.633 5.48235 11.9279C5.61509 11.3963 5.70117 10.9281 5.66991 10.38C5.55753 10.3691 5.55753 10.3691 5.44287 10.3581C5.16454 10.3308 4.8863 10.3029 4.60808 10.2745C4.42858 10.2564 4.249 10.2391 4.06942 10.2218C3.9566 10.2102 3.84377 10.1986 3.72753 10.1866C3.62337 10.1763 3.51921 10.1659 3.41189 10.1552C3.14991 10.11 3.14991 10.11 2.87991 9.93C2.85741 9.65437 2.85741 9.65437 2.87991 9.39C2.96991 9.3 2.96991 9.3 3.14156 9.28864Z" fill="#1AA484"/>
<path d="M2.80132 1.75689C3.17493 1.99243 3.45823 2.21449 3.60007 2.64001C3.64523 3.11161 3.65848 3.50645 3.45382 3.93939C3.06418 4.35979 2.78298 4.55149 2.20507 4.57501C1.6422 4.55286 1.36941 4.35319 0.961943 3.97876C0.740051 3.60072 0.692882 3.25564 0.720068 2.82001C0.836747 2.39605 1.01211 2.1541 1.35569 1.88064C1.84826 1.61863 2.27067 1.55524 2.80132 1.75689ZM1.66507 2.65126C1.50741 2.90295 1.50741 2.90295 1.53569 3.19126C1.63836 3.515 1.63836 3.515 1.89007 3.72001C2.1904 3.75835 2.36766 3.75206 2.63819 3.61314C2.83326 3.40362 2.87326 3.28606 2.88007 3.00001C2.77732 2.79452 2.68296 2.6229 2.52007 2.46001C2.14071 2.41706 1.96203 2.39885 1.66507 2.65126Z" fill="#1AA484"/>
<path d="M11.8745 9.54752C11.9654 9.55494 12.0564 9.56237 12.1501 9.57002C12.3423 9.85836 12.3509 9.93176 12.3413 10.2619C12.3397 10.3346 12.3381 10.4074 12.3364 10.4823C12.3343 10.5377 12.3322 10.593 12.3301 10.65C12.393 10.6479 12.4559 10.6458 12.5206 10.6437C12.6026 10.6421 12.6845 10.6404 12.7688 10.6388C12.891 10.6356 12.891 10.6356 13.0156 10.6324C13.2301 10.65 13.2301 10.65 13.4101 10.83C13.4326 11.055 13.4326 11.055 13.4101 11.28C13.2301 11.46 13.2301 11.46 13.0156 11.4776C12.9342 11.4755 12.8528 11.4734 12.7688 11.4713C12.6869 11.4696 12.605 11.468 12.5206 11.4663C12.4578 11.4643 12.3949 11.4622 12.3301 11.46C12.3332 11.5219 12.3364 11.5837 12.3396 11.6474C12.342 11.7285 12.3445 11.8096 12.347 11.8931C12.3517 12.0137 12.3517 12.0137 12.3565 12.1368C12.3301 12.36 12.3301 12.36 12.2088 12.5256C12.0601 12.63 12.0601 12.63 11.8238 12.6075C11.6101 12.54 11.6101 12.54 11.5201 12.45C11.5136 12.2833 11.5126 12.1163 11.5145 11.9494C11.5153 11.8583 11.5161 11.7672 11.5169 11.6734C11.518 11.603 11.519 11.5326 11.5201 11.46C11.4507 11.4621 11.3813 11.4642 11.3099 11.4663C11.2196 11.468 11.1293 11.4696 11.0363 11.4713C10.9466 11.4734 10.8568 11.4754 10.7642 11.4776C10.5301 11.46 10.5301 11.46 10.3501 11.28C10.367 11.055 10.367 11.055 10.4401 10.83C10.7284 10.6378 10.8018 10.6292 11.132 10.6388C11.2411 10.6412 11.2411 10.6412 11.3524 10.6437C11.4354 10.6468 11.4354 10.6468 11.5201 10.65C11.5191 10.5796 11.518 10.5092 11.5169 10.4366C11.5161 10.3455 11.5153 10.2545 11.5145 10.1606C11.5134 10.0698 11.5124 9.97896 11.5113 9.88537C11.524 9.55944 11.5453 9.57553 11.8745 9.54752Z" fill="#1AA484"/>
</svg>
