<svg width="116" height="123" viewBox="0 0 116 123" fill="none" xmlns="http://www.w3.org/2000/svg">
<path d="M30.457 94.4229L28.9183 93.1433" stroke="#AA640E" stroke-width="3" stroke-linecap="round" stroke-linejoin="round"/>
<path d="M25.7815 95.5022L27.2332 94.3168" stroke="#AA640E" stroke-width="3" stroke-linecap="round" stroke-linejoin="round"/>
<path d="M26.1966 97.9855L27.8599 93.5595" stroke="#AA640E" stroke-width="3" stroke-linecap="round" stroke-linejoin="round"/>
<path d="M28.6914 98.5498L28.7566 93.1442" stroke="#AA640E" stroke-width="3" stroke-linecap="round" stroke-linejoin="round"/>
<path d="M31.3871 61.7849C31.3871 61.7849 27.2937 78.8759 28.1087 92.7969" stroke="#AA640E" stroke-width="2" stroke-linecap="round" stroke-linejoin="round"/>
<path d="M77.9667 44.0541C79.2938 44.0541 80.3746 44.4427 81.2316 45.0144C81.0941 44.6512 80.8862 44.3131 80.5761 44.0257C80.0005 43.4918 79.9717 42.5978 80.5089 42.0292C81.0493 41.4606 81.9543 41.4321 82.5299 41.9628C83.7994 43.138 84.2279 44.6164 84.295 45.9432C85.0977 44.9102 84.8898 43.9562 84.8546 43.814C84.6276 43.0685 85.0529 42.2788 85.8107 42.0545C86.5654 41.8302 87.3648 42.2503 87.5918 42.999C88.0683 44.5564 87.8156 47.8765 83.7482 49.8572C83.2301 52.5297 81.2348 53.4995 80.1571 53.6322C80.0964 53.6385 80.0357 53.6416 79.9781 53.6416C79.2682 53.6416 78.651 53.1204 78.5615 52.4065C78.4623 51.6325 79.0188 50.9249 79.8022 50.8301C79.8118 50.8301 80.7839 50.6596 80.9822 49.0611C80.7423 48.4483 79.9397 46.8814 77.9699 46.8814C77.1801 46.8814 76.5406 46.2496 76.5406 45.4693C76.5374 44.6891 77.1769 44.0541 77.9667 44.0541Z" fill="#141414"/>
<path d="M84.1566 49.3556C84.1566 49.3556 109.152 69.3147 81.9164 69.9385L66.5312 69.9385" stroke="#141414" stroke-width="2" stroke-linecap="round" stroke-linejoin="round"/>
<path d="M35.7905 118.737C35.9939 116.808 36.9524 115.258 38.8114 113.847L38.8695 113.803C38.9712 113.723 39.0873 113.636 39.2253 113.578C40.0822 113.228 40.5324 112.573 40.6704 111.445C40.6922 111.249 40.6849 111.176 40.6196 111.089C39.9297 110.15 39.7191 109.073 40.0532 108.127C40.2492 107.56 40.6268 107.08 41.1424 106.716C41.6798 106.337 42.3333 106.163 42.9869 106.141L46.9735 105.981C47.54 105.959 48.1209 106.046 48.6292 106.294C49.0722 106.512 49.4788 106.818 49.8274 107.211C50.6698 108.156 50.8077 109.19 50.2486 110.288C50.1324 110.514 50.1396 110.645 50.2704 110.856C51.5992 112.988 52.2891 115.477 52.4634 118.693C52.5215 119.77 51.8752 120.301 51.3814 120.607C49.9872 121.465 48.4186 122.026 46.5887 122.324C45.1654 122.55 43.851 122.666 42.6165 122.666C40.9972 122.666 39.5158 122.469 38.0998 122.077C36.0374 121.502 35.5872 120.847 35.8123 118.744L35.7905 118.737Z" fill="#F94E44"/>
<path d="M44.8237 85.2432L43.7054 90.5114C42.7687 94.9137 42.8703 99.4689 43.9959 103.82L44.8165 107.007" stroke="#141414" stroke-width="3" stroke-linecap="round" stroke-linejoin="round"/>
<path d="M55.2593 118.737C55.4626 116.808 56.4212 115.258 58.2802 113.847L58.3382 113.803C58.4399 113.723 58.5561 113.636 58.6941 113.578C59.5509 113.228 60.0012 112.573 60.1391 111.445C60.1609 111.249 60.1537 111.176 60.0883 111.089C59.3985 110.15 59.1879 109.073 59.5219 108.127C59.718 107.56 60.0956 107.08 60.6112 106.716C61.1485 106.337 61.8021 106.163 62.4556 106.141L66.4423 105.981C67.0087 105.959 67.5896 106.046 68.098 106.294C68.5409 106.512 68.9476 106.818 69.2961 107.211C70.1385 108.156 70.2765 109.19 69.7173 110.288C69.6011 110.514 69.6084 110.645 69.7391 110.856C71.068 112.988 71.7579 115.477 71.9321 118.693C71.9902 119.77 71.3439 120.301 70.8501 120.607C69.4559 121.465 67.8874 122.026 66.0574 122.324C64.6341 122.55 63.3198 122.666 62.0853 122.666C60.4659 122.666 58.9845 122.469 57.5685 122.077C55.5062 121.502 55.056 120.847 55.2811 118.744L55.2593 118.737Z" fill="#F94E44"/>
<path d="M64.2847 85.2432L63.1664 90.5114C62.2296 94.9137 62.3313 99.4689 63.4568 103.82L64.2774 107.007" fill="#141414"/>
<path d="M64.2847 85.2432L63.1664 90.5114C62.2296 94.9137 62.3313 99.4689 63.4568 103.82L64.2774 107.007" stroke="#141414" stroke-width="3" stroke-linecap="round" stroke-linejoin="round"/>
<path d="M49.6877 69.249C49.6877 69.249 40.1968 85.3308 61.815 94.0308C61.815 94.0308 110.342 53.0198 48.489 1.47753C48.489 1.47753 51.5487 8.65792 48.2799 18.4159C44.6984 29.1226 11.022 70.2135 47.0835 96.0528C47.0835 96.0528 59.2961 105.491 85.1583 103.986C85.1583 103.986 32.8494 94.8071 49.6877 69.249Z" fill="#E3E3E3"/>
<path d="M61.8155 94.0299C61.8155 94.0299 110.343 53.0189 48.4896 1.47664C80.2951 38.0851 70.6258 78.4323 61.8155 94.0299Z" fill="#D8D8D8"/>
<path d="M52.0986 49.5184C52.0986 51.0851 51.8212 52.546 51.3433 53.7759C50.4833 55.9871 48.9745 57.4532 47.2563 57.4532C44.5824 57.4538 42.4141 53.9004 42.4141 49.5184C42.4141 45.1364 44.5824 41.583 47.2563 41.583C48.9745 41.583 50.4839 43.0497 51.3433 45.2609C51.8212 46.4908 52.0986 47.9517 52.0986 49.5184Z" fill="white"/>
<path d="M66.5322 49.5184C66.5322 51.0851 66.2547 52.546 65.7769 53.7759C64.9169 55.9871 63.4081 57.4532 61.6899 57.4532C59.0155 57.4532 56.8477 53.9004 56.8477 49.5178C56.8477 45.1352 59.0154 41.583 61.6893 41.583C63.4075 41.583 64.9169 43.0497 65.7763 45.2609C66.2542 46.4908 66.5316 47.9517 66.5316 49.5184H66.5322Z" fill="white"/>
<ellipse cx="61.3317" cy="49.6907" rx="2.7028" ry="5.6135" fill="#141414"/>
<ellipse cx="47.195" cy="49.6907" rx="2.7028" ry="5.6135" fill="#141414"/>
<mask id="path-19-inside-1_7561_13250" fill="white">
<path d="M60.5449 63.4118C59.2535 62.9975 58.6298 62.3738 54.471 62.3738C50.3123 62.3738 49.2739 63.2055 48.41 63.4118C47.387 63.0101 51.0191 61.958 54.471 61.958C57.9262 61.958 61.5261 63.012 60.5449 63.4118Z"/>
</mask>
<path d="M60.5449 63.4118C59.2535 62.9975 58.6298 62.3738 54.471 62.3738C50.3123 62.3738 49.2739 63.2055 48.41 63.4118C47.387 63.0101 51.0191 61.958 54.471 61.958C57.9262 61.958 61.5261 63.012 60.5449 63.4118Z" fill="#141414"/>
<path d="M60.5449 63.4118L59.6286 66.2684L60.6669 66.6015L61.6768 66.19L60.5449 63.4118ZM48.41 63.4118L47.3136 66.2042L48.1905 66.5486L49.1069 66.3297L48.41 63.4118ZM61.4612 60.5551C61.2431 60.4852 61.1061 60.4253 60.7079 60.273C60.3438 60.1336 59.8889 59.9705 59.3056 59.8257C58.1474 59.5384 56.6876 59.3738 54.471 59.3738V65.3738C56.4132 65.3738 57.3446 65.5211 57.8608 65.6492C58.1147 65.7122 58.3178 65.7826 58.5637 65.8767C58.7757 65.9578 59.201 66.1313 59.6286 66.2684L61.4612 60.5551ZM54.471 59.3738C52.187 59.3738 50.6244 59.6027 49.441 59.9143C48.853 60.0692 48.4027 60.2332 48.0786 60.3554C47.6842 60.504 47.6937 60.4985 47.7131 60.4938L49.1069 66.3297C49.5583 66.2219 50.0216 66.035 50.1948 65.9698C50.4383 65.878 50.6695 65.7954 50.969 65.7165C51.5604 65.5608 52.5964 65.3738 54.471 65.3738V59.3738ZM49.5065 60.6193C49.6333 60.6691 50.0347 60.8364 50.4295 61.2452C50.9054 61.7379 51.3377 62.5695 51.2133 63.5951C51.1088 64.4575 50.6593 64.9927 50.4757 65.1873C50.2662 65.4093 50.079 65.5289 50.0191 65.566C49.8582 65.6656 49.9455 65.5856 50.5133 65.4388C51.4888 65.1866 53.0077 64.958 54.471 64.958V58.958C52.4825 58.958 50.4593 59.2555 49.0116 59.6297C48.3677 59.7962 47.5231 60.0545 46.861 60.4643C46.6758 60.579 46.3903 60.7743 46.1116 61.0696C45.859 61.3374 45.3697 61.9432 45.257 62.8728C45.1245 63.9657 45.5803 64.861 46.1136 65.4133C46.5659 65.8817 47.0589 66.1042 47.3136 66.2042L49.5065 60.6193ZM54.471 64.958C55.9348 64.958 57.4457 65.1867 58.4188 65.439C58.9806 65.5846 59.0791 65.6662 58.9304 65.5753C58.8741 65.5408 58.698 65.4298 58.497 65.2237C58.3245 65.0468 57.8863 64.5493 57.7488 63.7319C57.5819 62.7392 57.9505 61.8741 58.4456 61.3236C58.849 60.875 59.2751 60.6897 59.4129 60.6335L61.6768 66.19C61.9372 66.0839 62.4503 65.8435 62.907 65.3355C63.4555 64.7256 63.844 63.7969 63.6658 62.7371C63.5171 61.8526 63.0364 61.2846 62.7926 61.0346C62.5203 60.7554 62.2439 60.5686 62.0609 60.4566C61.4052 60.0557 60.5718 59.7988 59.9244 59.631C58.479 59.2563 56.4625 58.958 54.471 58.958V64.958Z" fill="black" mask="url(#path-19-inside-1_7561_13250)"/>
</svg>
