<svg width="17" height="17" viewBox="0 0 17 17" fill="none" xmlns="http://www.w3.org/2000/svg">
<path d="M9.06656 1.04711C8.99629 1.04671 8.92602 1.04632 8.85362 1.04591C8.62188 1.04474 8.39014 1.04419 8.15839 1.04375C7.99673 1.04329 7.83508 1.04283 7.67342 1.04237C7.33467 1.04153 6.99592 1.04106 6.65717 1.04078C6.22417 1.04034 5.79119 1.03842 5.3582 1.03614C5.02429 1.03465 4.69038 1.03424 4.35647 1.03411C4.19689 1.03387 4.03731 1.03323 3.87774 1.03218C3.65399 1.03081 3.43029 1.03097 3.20654 1.03148C3.1413 1.03075 3.07605 1.03001 3.00884 1.02925C2.54895 1.03257 2.20523 1.12086 1.78505 1.3C1.45695 1.61671 1.35331 1.87557 1.33614 2.31063C1.33138 2.41721 1.33138 2.41721 1.32651 2.52594C1.32051 2.67594 1.31454 2.82594 1.30858 2.97594C1.30382 3.08221 1.30382 3.08221 1.29895 3.19063C1.29638 3.25571 1.29381 3.3208 1.29115 3.38785C1.29221 3.54074 1.29221 3.54074 1.19005 3.62C1.18657 3.80664 1.18644 3.99337 1.19005 4.18C1.24615 4.18 1.30225 4.18 1.36005 4.18C1.36005 4.3384 1.36005 4.4968 1.36005 4.66C1.30395 4.66 1.24785 4.66 1.19005 4.66C1.18644 4.84664 1.18657 5.03336 1.19005 5.22C1.2181 5.2464 1.24615 5.2728 1.27505 5.3C1.28349 5.42526 1.28602 5.55087 1.28621 5.67638C1.28655 5.7578 1.28689 5.83923 1.28724 5.92312C1.2872 6.01321 1.28715 6.10331 1.28711 6.19613C1.28755 6.33759 1.28755 6.33759 1.288 6.48191C1.28863 6.68756 1.28908 6.89321 1.28938 7.09886C1.28989 7.42431 1.29129 7.74977 1.2929 8.07522C1.29344 8.18661 1.29398 8.298 1.29451 8.40939C1.29478 8.46519 1.29505 8.52099 1.29533 8.57848C1.2989 9.33639 1.30171 10.0943 1.30275 10.8522C1.30347 11.3631 1.30538 11.8739 1.30865 12.3848C1.31033 12.6551 1.31138 12.9254 1.31096 13.1957C1.31076 13.4978 1.31264 13.7997 1.315 14.1018C1.31415 14.2354 1.31415 14.2354 1.3133 14.3718C1.31986 14.8849 1.37316 15.2036 1.70005 15.62C2.16901 15.9595 2.67026 15.9521 3.24159 15.9529C3.31006 15.9533 3.37853 15.9537 3.44908 15.9541C3.6749 15.9553 3.90071 15.9558 4.12653 15.9563C4.28417 15.9567 4.44181 15.9572 4.59945 15.9576C4.92984 15.9585 5.26023 15.9589 5.59062 15.9592C6.01257 15.9597 6.43448 15.9616 6.85642 15.9639C7.18209 15.9654 7.50776 15.9658 7.83344 15.9659C7.98891 15.9661 8.14439 15.9668 8.29986 15.9678C8.51809 15.9692 8.73628 15.969 8.95452 15.9685C9.01786 15.9693 9.08121 15.97 9.14647 15.9708C9.70576 15.9666 10.262 15.8817 10.6675 15.5C10.8553 15.2055 10.8904 14.9884 10.8883 14.6516C10.8881 14.5729 10.8878 14.4943 10.8875 14.4133C10.8868 14.3314 10.8861 14.2494 10.8854 14.165C10.885 14.0821 10.8846 13.9993 10.8842 13.9139C10.8832 13.7093 10.8817 13.5046 10.88 13.3C10.4312 13.2736 9.98245 13.2472 9.52005 13.22C9.52005 13.484 9.52005 13.748 9.52005 14.02C7.27605 14.02 5.03205 14.02 2.72005 14.02C2.72005 10.2976 2.72005 6.5752 2.72005 2.74C4.96405 2.74 7.20805 2.74 9.52005 2.74C9.5161 3.23779 9.51216 3.73557 9.5081 4.24844C9.50636 4.5638 9.50472 4.87916 9.50345 5.19453C9.50141 5.6951 9.49901 6.19564 9.4944 6.69619C9.49071 7.09975 9.48867 7.50329 9.48779 7.90686C9.48716 8.06083 9.48594 8.21479 9.4841 8.36875C9.48163 8.58442 9.48129 8.8 9.48145 9.01568C9.47962 9.11115 9.47962 9.11115 9.47775 9.20854C9.48097 9.61575 9.56519 9.80628 9.86005 10.1C9.94821 10.3489 9.96208 10.5396 9.97194 10.8009C9.9755 10.8904 9.97907 10.9799 9.98273 11.072C9.98775 11.2121 9.98775 11.2121 9.99286 11.355C9.99653 11.4493 10.0002 11.5436 10.004 11.6408C10.013 11.8738 10.0217 12.1069 10.03 12.34C10.3105 12.34 10.591 12.34 10.88 12.34C10.88 9.5944 10.88 6.8488 10.88 4.02C10.9361 4.02 10.9922 4.02 11.05 4.02C11.0523 3.87501 11.054 3.73 11.0554 3.585C11.0563 3.50425 11.0573 3.42351 11.0583 3.34031C11.05 3.14 11.05 3.14 10.965 3.06C10.944 2.78316 10.9324 2.50638 10.9206 2.22906C10.864 1.82582 10.7325 1.55846 10.4232 1.275C10.0026 1.02053 9.55333 1.04777 9.06656 1.04711ZM7.05505 1.78C7.05505 1.8592 7.05505 1.9384 7.05505 2.02C6.4099 2.02 5.76475 2.02 5.10005 2.02C5.10005 1.9408 5.10005 1.8616 5.10005 1.78C5.7452 1.78 6.39035 1.78 7.05505 1.78ZM6.29005 14.66C6.34615 14.7128 6.40225 14.7656 6.46005 14.82C6.43281 15.0282 6.43281 15.0282 6.37505 15.22C6.17129 15.2744 6.17129 15.2744 5.95005 15.3C5.89395 15.2472 5.83785 15.1944 5.78005 15.14C5.80728 14.9318 5.80728 14.9318 5.86505 14.74C6.06881 14.6856 6.06881 14.6856 6.29005 14.66Z" fill="#1AA484"/>
<path d="M7.64991 4.10001C7.17661 4.14546 7.17661 4.14546 7.05491 4.26001C7.03366 4.53501 7.03366 4.53501 7.05491 4.82001C7.30991 4.98001 7.30991 4.98001 7.53303 4.95501C7.73491 4.90001 7.73491 4.90001 7.81991 4.82001C7.98987 4.81674 8.15995 4.8166 8.32991 4.82001C8.33486 5.15667 8.33787 5.49332 8.34053 5.83001C8.34267 5.97278 8.34267 5.97278 8.34485 6.11844C8.3454 6.21074 8.34594 6.30304 8.34651 6.39813C8.3474 6.48276 8.34829 6.56738 8.34921 6.65458C8.32818 6.92192 8.26928 7.13283 8.15991 7.38001C7.96851 7.51746 7.96851 7.51746 7.73491 7.62001C7.6192 7.70416 7.6192 7.70416 7.50116 7.79001C7.15133 7.97996 6.86229 8.03719 6.45991 8.02001C6.04879 7.89748 5.76822 7.7175 5.43991 7.46001C5.35576 7.43361 5.27161 7.40721 5.18491 7.38001C4.95193 6.86812 4.99568 6.33292 5.00428 5.78501C5.00505 5.69214 5.00582 5.59928 5.00661 5.5036C5.0086 5.27572 5.01139 5.04787 5.01491 4.82001C5.26281 4.80666 5.26281 4.80666 5.52491 4.82001C5.58101 4.87281 5.63711 4.92561 5.69491 4.98001C6.1682 4.93455 6.1682 4.93455 6.28991 4.82001C6.31116 4.54501 6.31116 4.54501 6.28991 4.26001C6.03491 4.10001 6.03491 4.10001 5.81178 4.12501C5.60991 4.18001 5.60991 4.18001 5.52491 4.26001C5.30877 4.29947 5.09191 4.33199 4.87446 4.36438C4.67491 4.42001 4.67491 4.42001 4.50491 4.66001C4.46971 4.99796 4.47332 5.33678 4.47341 5.67616C4.47304 5.84142 4.46997 6.0065 4.46672 6.17172C4.45994 6.90821 4.46237 7.86208 5.01289 8.43475C5.36469 8.69908 5.74885 8.90001 6.20491 8.90001C6.20294 8.95012 6.20096 9.00024 6.19893 9.05188C6.1974 9.11726 6.19586 9.18264 6.19428 9.25001C6.19231 9.31497 6.19034 9.37994 6.18831 9.44688C6.20491 9.62001 6.20491 9.62001 6.37491 9.78001C6.3906 9.98729 6.39639 10.1868 6.39516 10.3941C6.39647 10.5193 6.39786 10.6446 6.39931 10.7698C6.40071 10.9674 6.40147 11.1648 6.40087 11.3623C6.40065 11.553 6.40304 11.7435 6.40579 11.9341C6.40492 11.9927 6.40405 12.0514 6.40316 12.1119C6.40952 12.4268 6.44835 12.5664 6.65985 12.8154C7.0156 13.0756 7.29318 13.0882 7.73491 13.06C8.07326 12.9338 8.21147 12.8672 8.41491 12.58C8.43796 12.3656 8.43796 12.3656 8.44114 12.11C8.44327 12.018 8.44541 11.926 8.44761 11.8313C8.4506 11.6371 8.45326 11.4429 8.45558 11.2488C8.45895 11.1108 8.45895 11.1108 8.46239 10.97C8.4641 10.8435 8.4641 10.8435 8.46585 10.7144C8.48364 10.5009 8.48364 10.5009 8.60319 10.3506C8.80336 10.2311 8.94744 10.2423 9.17991 10.26C9.18115 10.3233 9.18239 10.3867 9.18366 10.4519C9.19 10.7397 9.19822 11.0273 9.20647 11.315C9.20839 11.4147 9.2103 11.5143 9.21228 11.617C9.21529 11.7132 9.21831 11.8094 9.22141 11.9084C9.22364 11.9968 9.22586 12.0852 9.22816 12.1763C9.2815 12.53 9.40864 12.7272 9.69109 12.9628C10.0772 13.1106 10.4479 13.0958 10.861 13.0947C10.9497 13.0951 11.0385 13.0955 11.1299 13.096C11.3173 13.0965 11.5047 13.0964 11.6921 13.0957C11.9783 13.095 12.2643 13.0973 12.5505 13.0998C12.7329 13.1 12.9152 13.0999 13.0975 13.0997C13.1828 13.1006 13.2681 13.1015 13.356 13.1024C13.8592 13.0977 14.1522 13.0568 14.5349 12.74C14.6743 12.4777 14.6301 12.1875 14.6282 11.8994C14.6281 11.8321 14.628 11.7649 14.6278 11.6956C14.6274 11.4804 14.6263 11.2652 14.6252 11.05C14.6248 10.9043 14.6244 10.7585 14.6241 10.6128C14.6231 10.2552 14.6217 9.89761 14.6199 9.54001C14.7146 9.51628 14.8094 9.49256 14.907 9.46811C15.2123 9.38074 15.3119 9.33451 15.5018 9.10501C15.5428 9.05726 15.5837 9.00951 15.626 8.96032C15.8481 8.64531 15.8583 8.30492 15.8099 7.94001C15.6911 7.56758 15.5304 7.3465 15.2096 7.10001C14.8056 6.91643 14.3769 6.91912 13.9399 6.98001C13.5248 7.16469 13.3007 7.39786 13.0899 7.78001C12.9659 8.26255 12.9875 8.6269 13.2599 9.06001C13.5281 9.35216 13.7921 9.47895 14.1949 9.54001C14.1849 9.93585 14.1743 10.3317 14.1633 10.7275C14.1596 10.8622 14.156 10.9969 14.1526 11.1316C14.1477 11.3251 14.1423 11.5185 14.1368 11.7119C14.1354 11.7723 14.134 11.8327 14.1325 11.895C14.129 12.2078 14.129 12.2078 14.0249 12.5C13.4454 12.502 12.8659 12.5034 12.2864 12.5044C12.0891 12.5048 11.8918 12.5054 11.6945 12.506C11.4116 12.507 11.1286 12.5075 10.8457 12.5078C10.7125 12.5084 10.7125 12.5084 10.5766 12.5091C10.4541 12.5091 10.4541 12.5091 10.3291 12.5091C10.2207 12.5094 10.2207 12.5094 10.11 12.5096C9.94441 12.5172 9.94441 12.5172 9.85991 12.42C9.84958 12.2765 9.84463 12.1326 9.84198 11.9888C9.83957 11.9006 9.83716 11.8124 9.83467 11.7216C9.83028 11.5351 9.8265 11.3487 9.82338 11.1622C9.82075 11.0736 9.81812 10.985 9.81542 10.8938C9.81373 10.8126 9.81205 10.7314 9.81031 10.6477C9.75987 10.3233 9.61112 10.1122 9.37647 9.87501C9.0878 9.73549 8.81352 9.72554 8.49991 9.78001C8.26105 9.9235 8.11661 10.0215 7.98991 10.26C7.97784 10.4148 7.97068 10.5699 7.966 10.725C7.96124 10.8639 7.96124 10.8639 7.95637 11.0056C7.9504 11.2019 7.94442 11.3981 7.93844 11.5944C7.93368 11.7333 7.93368 11.7333 7.92881 11.875C7.92624 11.9603 7.92366 12.0456 7.92101 12.1334C7.91899 12.3389 7.91899 12.3389 7.81991 12.5C7.56746 12.5 7.31501 12.5 7.05491 12.5C6.86402 12.1407 6.95411 11.6473 6.95416 11.2474C6.95397 11.066 6.95243 10.8847 6.95082 10.7033C6.95057 10.5881 6.9504 10.473 6.95032 10.3578C6.94997 10.2528 6.94962 10.1479 6.94926 10.0397C6.94814 9.76818 6.94814 9.76818 7.13991 9.54001C7.1618 9.32444 7.14747 9.11717 7.13991 8.90001C7.20828 8.89671 7.27665 8.89341 7.3471 8.89001C7.85244 8.77319 8.29522 8.50898 8.58491 8.10001C8.63571 7.92751 8.63571 7.92751 8.67522 7.74001C8.7198 7.53194 8.76833 7.34209 8.83991 7.14001C8.86118 6.78686 8.86292 6.43355 8.865 6.07991C8.86598 5.96344 8.86772 5.84698 8.87023 5.73053C8.87385 5.56211 8.87523 5.39378 8.8761 5.22532C8.87734 5.12462 8.87858 5.02393 8.87986 4.92018C8.83307 4.61545 8.7572 4.52334 8.49991 4.34001C8.32393 4.29688 8.32393 4.29688 8.14928 4.29001C7.81902 4.29308 7.81902 4.29308 7.64991 4.10001ZM14.7793 7.95501C14.8955 8.10066 14.8955 8.10066 14.8643 8.30501C14.8032 8.5261 14.8032 8.5261 14.5349 8.66001C14.31 8.63503 14.31 8.63503 14.1099 8.58001C14.0524 8.30775 14.0524 8.30775 14.0249 8.02001C14.1798 7.84163 14.1798 7.84163 14.4021 7.83501C14.6202 7.84517 14.6202 7.84517 14.7793 7.95501Z" fill="#1AA484"/>
</svg>
