<svg width="20" height="23" viewBox="0 0 20 23" fill="none" xmlns="http://www.w3.org/2000/svg">
<path d="M7.7901 0.00166525C8.30226 -0.00808236 8.81254 0.024675 9.31817 0.107552C9.33866 0.110856 9.35915 0.11416 9.38026 0.117563C10.7801 0.349062 12.1974 0.991299 13.2403 1.96429C13.2805 2.00143 13.3213 2.037 13.3629 2.07255C13.4707 2.16663 13.5718 2.26732 13.6729 2.36845C13.7056 2.40107 13.7384 2.43352 13.7713 2.46597C13.9059 2.59984 14.028 2.73836 14.146 2.88723C14.1751 2.92213 14.2043 2.95697 14.2335 2.99173C14.8227 3.71504 15.2582 4.53792 15.5672 5.41611C15.5771 5.44404 15.5771 5.44404 15.5872 5.47254C15.7072 5.81588 15.7864 6.16816 15.8598 6.5238C15.8636 6.542 15.8674 6.5602 15.8712 6.57895C15.8927 6.6855 15.9088 6.7922 15.9225 6.9C15.9267 6.93172 15.9267 6.93172 15.931 6.96408C16.0845 8.16614 15.9821 9.44204 15.6215 10.5997C15.6052 10.6536 15.5909 10.708 15.5762 10.7623C15.1605 12.2654 14.203 13.6275 13.2375 14.8282C13.1764 14.9042 13.116 14.9807 13.0562 15.0577C12.9578 15.1841 12.8561 15.3068 12.7513 15.4279C12.6794 15.511 12.6101 15.5957 12.5419 15.6819C12.391 15.8708 12.2362 16.0568 12.0796 16.2409C12.0023 16.3317 11.927 16.4238 11.8529 16.5172C11.7904 16.5952 11.7266 16.672 11.6629 16.7491C11.5626 16.8704 11.4638 16.9926 11.3671 17.1168C11.3099 17.1901 11.252 17.2629 11.1935 17.3352C11.0296 17.538 10.8739 17.7467 10.7185 17.956C10.7057 17.9732 10.6929 17.9903 10.6797 18.008C10.5228 18.2186 10.3692 18.4308 10.2223 18.6484C10.1971 18.6858 10.1717 18.7231 10.1463 18.7603C9.88705 19.1428 9.64672 19.5375 9.42267 19.9415C9.41151 19.9615 9.40036 19.9816 9.38887 20.0022C8.81697 21.0333 8.39491 22.1374 8.12688 23.2855C8.14027 23.2865 8.15366 23.2875 8.16745 23.2885C8.42336 23.3103 8.63797 23.3949 8.83747 23.5572C8.8538 23.5701 8.87012 23.583 8.88694 23.5964C9.12613 23.7961 9.29604 24.0831 9.33907 24.3932C9.37346 24.8329 9.27964 25.1986 8.99161 25.5387C8.74375 25.7957 8.42426 25.9392 8.06801 25.9649C7.65179 25.972 7.31724 25.8211 7.01723 25.5441C6.75975 25.2719 6.64971 24.9264 6.65257 24.5583C6.6658 24.1861 6.83243 23.8543 7.10278 23.599C7.32405 23.418 7.58586 23.2824 7.87608 23.2855C7.63608 22.3176 7.33746 21.324 6.8479 20.4485C6.81433 20.3879 6.78335 20.3268 6.75306 20.2646C6.29709 19.3286 5.67982 18.4575 5.04163 17.6378C5.00818 17.5948 4.97485 17.5517 4.94153 17.5085C4.8231 17.3555 4.70425 17.2031 4.58101 17.0539C4.519 16.9787 4.45764 16.9031 4.39625 16.8274C4.36149 16.7846 4.32671 16.7418 4.29194 16.699C4.26438 16.6651 4.23684 16.6312 4.2093 16.5973C4.13679 16.5083 4.06364 16.4199 3.98913 16.3326C3.89993 16.228 3.81304 16.1222 3.72877 16.0136C3.63981 15.8991 3.54723 15.7884 3.45237 15.6787C3.35729 15.5687 3.26514 15.4565 3.17361 15.3435C3.15231 15.3174 3.131 15.2913 3.10969 15.2652C2.96172 15.0839 2.8156 14.9013 2.67202 14.7165C2.66338 14.7054 2.65475 14.6943 2.64585 14.6829C2.4991 14.4937 2.35481 14.3027 2.21222 14.1104C2.2018 14.0964 2.19139 14.0824 2.18066 14.068C1.84863 13.6196 1.5446 13.155 1.27173 12.6684C1.2555 12.6397 1.2555 12.6397 1.23895 12.6104C0.837051 11.8975 0.527921 11.1575 0.310335 10.3694C0.305637 10.3529 0.300939 10.3363 0.296099 10.3193C-0.0647462 9.04741 -0.088416 7.62422 0.184936 6.33571C0.189206 6.3149 0.193476 6.2941 0.197876 6.27267C0.306877 5.74886 0.471093 5.20975 0.707167 4.72828C0.730924 4.67927 0.75357 4.62983 0.776173 4.58028C1.00613 4.08022 1.29076 3.61531 1.62702 3.17983C1.64419 3.15707 1.66134 3.13429 1.67846 3.1115C1.77259 2.98673 1.86984 2.86649 1.97604 2.75163C2.01432 2.70983 2.05127 2.66746 2.08813 2.62443C2.17959 2.51963 2.27729 2.42117 2.37561 2.32287C2.40727 2.29117 2.43876 2.2593 2.47024 2.22742C2.49039 2.20721 2.51054 2.18702 2.5307 2.16684C2.54881 2.14864 2.56692 2.13044 2.58559 2.11169C2.63022 2.07214 2.63022 2.07214 2.67202 2.07214C2.67202 2.05834 2.67202 2.04455 2.67202 2.03034C2.70439 2.00072 2.73822 1.97269 2.7726 1.94543C2.79385 1.92846 2.81511 1.91149 2.83701 1.894C2.85843 1.87692 2.87985 1.85984 2.90192 1.84224C2.93676 1.81308 2.9716 1.78391 3.00641 1.75472C3.27691 1.53425 3.55889 1.33492 3.85987 1.15838C3.9038 1.13242 3.94731 1.10585 3.99075 1.07907C4.70892 0.640004 5.52982 0.345782 6.35039 0.170252C6.36906 0.16619 6.38774 0.162129 6.40698 0.157945C6.86177 0.060397 7.3254 0.0123571 7.7901 0.00166525ZM6.89379 2.23934C6.87157 2.24393 6.84935 2.24852 6.82645 2.25325C5.97855 2.43212 5.16388 2.78108 4.4819 3.32069C4.45274 3.34369 4.42318 3.36618 4.39356 3.38858C4.29017 3.4668 4.19403 3.55147 4.09868 3.6393C4.05141 3.68143 4.05141 3.68143 4.00348 3.71571C3.99171 3.72509 3.97994 3.73447 3.96781 3.74413C3.96781 3.75792 3.96781 3.77171 3.96781 3.78592C3.95549 3.79139 3.94318 3.79686 3.93049 3.80249C3.84878 3.84704 3.79172 3.91826 3.72877 3.98578C3.71397 4.00161 3.69917 4.01743 3.68393 4.03374C3.53685 4.19343 3.40484 4.36222 3.27811 4.53832C3.26802 4.5523 3.25792 4.56628 3.24752 4.58068C2.33829 5.84858 1.98237 7.41349 2.22275 8.95293C2.41255 10.0536 2.90525 11.0351 3.63341 11.8742C3.65151 11.8958 3.65151 11.8958 3.66998 11.9178C3.85851 12.1408 4.07136 12.3438 4.3022 12.5221C4.32912 12.5433 4.35604 12.5646 4.38295 12.5858C5.14091 13.1799 6.0497 13.6138 7.00743 13.7565C7.03108 13.76 7.05474 13.7635 7.07911 13.7672C7.82779 13.8764 8.57904 13.8688 9.31817 13.6925C9.34301 13.6867 9.36785 13.681 9.39344 13.6751C10.4237 13.4193 11.3347 12.901 12.0978 12.1668C12.1142 12.1511 12.1142 12.1511 12.1308 12.1352C12.2777 11.9938 12.4105 11.8465 12.5367 11.6861C12.5506 11.6691 12.5645 11.6522 12.5789 11.6348C13.5424 10.4588 13.9703 8.90291 13.8286 7.39899C13.7998 7.12363 13.7527 6.85518 13.6862 6.5865C13.6819 6.56847 13.6775 6.55044 13.673 6.53186C13.516 5.8999 13.2418 5.28274 12.8711 4.74732C12.8612 4.73288 12.8512 4.71845 12.841 4.70358C12.6772 4.46812 12.5005 4.24836 12.3068 4.03672C12.2863 4.01377 12.2658 3.9908 12.2453 3.96782C12.2244 3.94463 12.2036 3.92144 12.1828 3.89826C12.1729 3.88711 12.163 3.87596 12.1528 3.86447C12.1284 3.83749 12.1028 3.8116 12.0769 3.78592C12.0632 3.78592 12.0494 3.78592 12.0351 3.78592C12.0283 3.76523 12.0214 3.74454 12.0142 3.72323C11.9839 3.69087 11.9839 3.69087 11.945 3.65922C11.9297 3.64631 11.9145 3.63341 11.8987 3.62011C11.8731 3.59874 11.8731 3.59874 11.847 3.57693C11.8205 3.55393 11.8205 3.55393 11.7934 3.53047C10.7387 2.62828 9.39286 2.13833 8.00801 2.14659C7.97385 2.14669 7.97385 2.14669 7.939 2.14679C7.58426 2.14825 7.24181 2.16524 6.89379 2.23934Z" fill="#1AA484"/>
<path fill-rule="evenodd" clip-rule="evenodd" d="M8.54249 4.11608C8.54249 3.82329 8.30514 3.58594 8.01235 3.58594C7.71956 3.58594 7.4822 3.82329 7.4822 4.11608V7.04627C6.96411 7.25599 6.59863 7.76392 6.59863 8.35722C6.59863 8.95052 6.96411 9.45845 7.4822 9.66817V11.1846C7.4822 11.4774 7.71956 11.7148 8.01235 11.7148C8.30514 11.7148 8.54249 11.4774 8.54249 11.1846V9.66817C9.06058 9.45845 9.42606 8.95052 9.42606 8.35722C9.42606 7.76392 9.06058 7.25599 8.54249 7.04627V4.11608Z" fill="#1AA484"/>
</svg>