<svg width="35" height="35" viewBox="0 0 35 35" fill="none" xmlns="http://www.w3.org/2000/svg">
<path opacity="0.4" d="M10.2083 13.125L24.7917 13.125C28.0133 13.125 30.625 15.7367 30.625 18.9583V24.7917C30.625 28.0133 28.0133 30.625 24.7917 30.625H10.2083C6.98667 30.625 4.375 28.0133 4.375 24.7917L4.375 18.9583C4.375 15.7367 6.98667 13.125 10.2083 13.125Z" fill="white"/>
<path fill-rule="evenodd" clip-rule="evenodd" d="M12.3516 9.5234C11.9245 9.09627 11.9245 8.40374 12.3516 7.97661L16.7266 3.60161C17.1537 3.17447 17.8463 3.17447 18.2734 3.60161L22.6484 7.97661C23.0755 8.40374 23.0755 9.09627 22.6484 9.5234C22.2213 9.95054 21.5287 9.95054 21.1016 9.5234L18.5937 7.01555L18.5937 21.875C18.5937 22.4791 18.1041 22.9687 17.5 22.9687C16.8959 22.9687 16.4062 22.4791 16.4062 21.875L16.4062 7.01555L13.8984 9.5234C13.4713 9.95054 12.7787 9.95054 12.3516 9.5234Z" fill="white"/>
</svg>
