<svg width="40" height="40" viewBox="0 0 40 40" fill="none" xmlns="http://www.w3.org/2000/svg">
<path opacity="0.4" d="M11.6667 15L28.3333 15C32.0152 15 35 17.9848 35 21.6667V28.3333C35 32.0152 32.0152 35 28.3333 35H11.6667C7.98477 35 5 32.0152 5 28.3333L5 21.6667C5 17.9848 7.98477 15 11.6667 15Z" fill="#1AA484"/>
<path fill-rule="evenodd" clip-rule="evenodd" d="M14.1161 10.8839C13.628 10.3957 13.628 9.60427 14.1161 9.11612L19.1161 4.11612C19.6043 3.62796 20.3957 3.62796 20.8839 4.11612L25.8839 9.11612C26.372 9.60427 26.372 10.3957 25.8839 10.8839C25.3957 11.372 24.6043 11.372 24.1161 10.8839L21.25 8.01777L21.25 25C21.25 25.6904 20.6904 26.25 20 26.25C19.3096 26.25 18.75 25.6904 18.75 25L18.75 8.01777L15.8839 10.8839C15.3957 11.372 14.6043 11.372 14.1161 10.8839Z" fill="#1AA484"/>
</svg>
