<?xml version="1.0" encoding="utf-8"?>
<!-- Generator: Adobe Illustrator 27.5.0, SVG Export Plug-In . SVG Version: 6.00 Build 0)  -->
<svg version="1.1" id="Layer_1" xmlns="http://www.w3.org/2000/svg" xmlns:xlink="http://www.w3.org/1999/xlink" x="0px" y="0px"
	 viewBox="0 0 24 24" style="enable-background:new 0 0 24 24;" xml:space="preserve">
<style type="text/css">
	.st0{display:none;opacity:0.4;fill-rule:evenodd;clip-rule:evenodd;fill:#6C717B;enable-background:new    ;}
	.st1{display:none;fill-rule:evenodd;clip-rule:evenodd;fill:#6C717B;}
	.st2{display:none;opacity:0.4;fill:#6C717B;enable-background:new    ;}
	.st3{display:none;fill:#6C717B;}
	.st4{opacity:0.4;fill:#6C717B;enable-background:new    ;}
	.st5{fill:#6C717B;}
	.st6{opacity:0.4;fill-rule:evenodd;clip-rule:evenodd;fill:#6C717B;enable-background:new    ;}
</style>
<path class="st0" d="M9.4,14.9c0.3,0.3,0.3,0.8,0,1.1l-5.8,5.6c-0.3,0.3-0.8,0.3-1.1,0c-0.3-0.3-0.3-0.8,0-1.1l5.8-5.6
	C8.6,14.6,9.1,14.6,9.4,14.9z"/>
<path class="st1" d="M17.9,2.5c0.3-0.3,0.8-0.3,1.1,0l1.4,1.4c0,0,0,0,0,0c0,0,0,0,0,0l1.4,1.4c0.3,0.3,0.3,0.8,0,1.1
	c-0.3,0.3-0.8,0.3-1.1,0l-0.9-0.9l-2.3,2.3c-0.3,0.3-0.8,0.3-1.1,0c-0.3-0.3-0.3-0.8,0-1.1l2.3-2.3l-0.9-0.9
	C17.6,3.2,17.6,2.8,17.9,2.5z"/>
<path class="st2" d="M13.5,6.5l-5.2,5.2C8,12,7.8,12.4,7.7,12.9l-0.2,1.6c-0.2,1.3,0.9,2.5,2.3,2.3l1.6-0.2c0.4-0.1,0.8-0.3,1.1-0.6
	l5.2-5.2c0.8-0.8,0.8-2,0-2.8l-1.4-1.4C15.5,5.8,14.3,5.8,13.5,6.5z"/>
<path class="st3" d="M9.8,16.8l1.6-0.2c0.4-0.1,0.8-0.3,1.1-0.6l3.8-3.8l-7.1-1.4l-0.9,0.9C8,12,7.8,12.4,7.7,12.9l-0.2,1.6
	C7.3,15.8,8.4,17,9.8,16.8z"/>
<g>
	<path class="st4" d="M1.7,7.2c0-2.6,2.1-4.6,4.6-4.6h11.5c2.5,0,4.6,2.1,4.6,4.6V9v10.4c0,2.6-2.1,4.6-4.6,4.6H6.3
		c-2.5,0-4.6-2.1-4.6-4.6V9V7.2z"/>
	<path class="st5" d="M17.7,2.6H6.3c-2.5,0-4.6,2.1-4.6,4.6v1.7h20.7V7.2C22.3,4.6,20.3,2.6,17.7,2.6z"/>
	<path class="st6" d="M7.4,0c0.5,0,0.9,0.4,0.9,0.9v3.4c0,0.5-0.4,0.9-0.9,0.9c-0.5,0-0.9-0.4-0.9-0.9V0.9C6.5,0.4,6.9,0,7.4,0z
		 M16.6,0c0.5,0,0.9,0.4,0.9,0.9v3.4c0,0.5-0.4,0.9-0.9,0.9s-0.9-0.4-0.9-0.9V0.9C15.7,0.4,16.1,0,16.6,0z"/>
	<circle class="st5" cx="12" cy="15.8" r="1.1"/>
	<circle class="st5" cx="16.6" cy="15.8" r="1.1"/>
	<circle class="st5" cx="7.4" cy="15.8" r="1.1"/>
</g>
</svg>
