<?xml version="1.0" encoding="utf-8"?>
<!-- Generator: Adobe Illustrator 27.5.0, SVG Export Plug-In . SVG Version: 6.00 Build 0)  -->
<svg version="1.1" id="Layer_1" xmlns="http://www.w3.org/2000/svg" xmlns:xlink="http://www.w3.org/1999/xlink" x="0px" y="0px"
	 viewBox="0 0 24 24" style="enable-background:new 0 0 24 24;" xml:space="preserve">
<style type="text/css">
	.st0{fill:#6C717B;}
	.st1{opacity:0.4;}
</style>
<path class="st0" d="M22.8,18.8c0,2.2-1.8,4.1-4.1,4.1s-4.1-1.8-4.1-4.1s1.8-4.1,4.1-4.1S22.8,16.5,22.8,18.8z"/>
<g class="st1">
	<path class="st0" d="M9.3,5.2c0,2.2-1.8,4.1-4.1,4.1S1.2,7.5,1.2,5.2S3,1.2,5.2,1.2S9.3,3,9.3,5.2z"/>
	<path class="st0" d="M14.7,3.9c0-1.5,1.2-2.7,2.7-2.7h2.7c1.5,0,2.7,1.2,2.7,2.7v2.7c0,1.5-1.2,2.7-2.7,2.7h-2.7
		c-1.5,0-2.7-1.2-2.7-2.7V3.9z"/>
	<path class="st0" d="M1.2,17.4c0-1.5,1.2-2.7,2.7-2.7h2.7c1.5,0,2.7,1.2,2.7,2.7v2.7c0,1.5-1.2,2.7-2.7,2.7H3.9
		c-1.5,0-2.7-1.2-2.7-2.7V17.4z"/>
</g>
</svg>
