<svg width="24" height="24" viewBox="0 0 24 24" fill="none" xmlns="http://www.w3.org/2000/svg">
<path opacity="0.4" d="M2 6C2 3.79086 3.79086 2 6 2H18C20.2091 2 22 3.79086 22 6V18C22 20.2091 20.2091 22 18 22H6C3.79086 22 2 20.2091 2 18V6Z" fill="#6C717B"/>
<path d="M19.061 11.8838L22 13.9999V17.9999C22 20.209 20.2091 21.9999 18 21.9999H6C3.79086 21.9999 2 20.209 2 17.9999V13.9999L4.93901 16.1159C6.4662 17.2155 8.55331 17.1019 9.95209 15.843L14.0479 12.1567C15.4467 10.8978 17.5338 10.7842 19.061 11.8838Z" fill="#6C717B"/>
<circle cx="8.5" cy="8.5" r="2.5" fill="#6C717B"/>
</svg>
