<svg width="37" height="39" viewBox="0 0 37 39" fill="none" xmlns="http://www.w3.org/2000/svg">
<path d="M7.46375 8.0169C9.10925 8.01466 10.7547 8.01243 12.4501 8.01013C12.9705 8.00914 13.4909 8.00815 14.027 8.00714C14.6604 8.00665 14.6604 8.00665 14.9565 8.00656C15.1642 8.00639 15.3719 8.00601 15.5796 8.00546C15.8934 8.00467 16.2072 8.00456 16.521 8.0046C16.6142 8.00421 16.7074 8.00382 16.8034 8.00342C17.4376 8.00454 17.4376 8.00454 17.55 8.12523C17.5661 8.46114 17.5761 8.79495 17.5819 9.13112C17.5837 9.22046 17.5856 9.30979 17.5876 9.40184C17.5945 9.73688 17.6005 10.0719 17.6067 10.407C17.6285 11.5298 17.6285 11.5298 17.6508 12.6752C19.8476 12.7289 19.8476 12.7289 22.0887 12.7836C22.1292 15.0425 22.1292 15.0425 22.138 16.0092C22.144 16.6676 22.1511 17.3259 22.1648 17.9841C22.1758 18.5152 22.1818 19.046 22.1844 19.5772C22.1863 19.7793 22.1899 19.9814 22.1954 20.1835C22.2365 21.7656 22.2365 21.7656 21.8689 22.3288C21.6168 22.575 21.3681 22.7727 21.0801 22.9669C20.9708 23.0627 20.8627 23.1601 20.7567 23.2602C20.6699 23.3354 20.5832 23.4107 20.4939 23.4883C20.4058 23.5649 20.3178 23.6416 20.2271 23.7206C19.9706 23.9419 19.9706 23.9419 19.7031 24.1281C19.3674 24.4785 19.2982 24.8371 19.189 25.3164C19.168 25.3993 19.1471 25.4821 19.1255 25.5675C18.9855 26.1433 18.9117 26.7079 18.8612 27.3002C20.5217 27.3997 20.5217 27.3997 22.0887 26.9752C22.0887 27.6545 22.0887 28.3337 22.0887 29.0336C17.2625 29.0336 12.4362 29.0336 7.46375 29.0336C7.46375 22.0981 7.46375 15.1626 7.46375 8.0169Z" fill="#C4C6CA"/>
<path d="M25.4173 19.9331C25.7737 20.0933 25.9778 20.3058 26.2305 20.617C26.2982 20.6992 26.366 20.7815 26.4358 20.8662C26.6255 21.122 26.78 21.3824 26.9302 21.6664C26.8346 21.7494 26.8346 21.7494 26.7372 21.834C26.1896 22.3119 25.6491 22.7968 25.1147 23.2914C24.5174 23.8438 23.9117 24.3836 23.2992 24.9164C23.1567 25.0408 23.0142 25.1652 22.8717 25.2897C22.4764 25.6349 22.0809 25.9799 21.6854 26.3248C21.3335 26.1478 21.1247 25.9554 20.8659 25.6409C20.797 25.5587 20.7281 25.4764 20.6571 25.3917C20.4741 25.1318 20.3714 24.8982 20.2733 24.5914C20.901 23.9668 21.5366 23.364 22.2027 22.7866C22.5155 22.5128 22.8223 22.2324 23.129 21.9508C23.6623 21.4622 24.2082 20.9931 24.7624 20.532C24.9917 20.3409 25.2118 20.1538 25.4173 19.9331Z" fill="#C4C6CA"/>
<path d="M9.90151 21.6523C9.99216 21.6519 10.0828 21.6514 10.1762 21.6509C10.3266 21.651 10.3266 21.651 10.48 21.6511C10.5849 21.6507 10.6899 21.6504 10.798 21.65C11.1469 21.649 11.4957 21.6488 11.8446 21.6486C12.0859 21.6483 12.3273 21.6479 12.5686 21.6475C13.0752 21.6469 13.5819 21.6467 14.0885 21.6468C14.7392 21.6468 15.3898 21.6453 16.0405 21.6434C16.5392 21.6422 17.0378 21.642 17.5364 21.6421C17.7764 21.6419 18.0164 21.6414 18.2563 21.6406C18.5913 21.6396 18.9263 21.6399 19.2613 21.6405C19.3613 21.6399 19.4613 21.6393 19.5644 21.6387C19.6553 21.6391 19.7463 21.6396 19.84 21.64C19.9192 21.64 19.9985 21.6399 20.0802 21.6399C20.2733 21.6668 20.2733 21.6668 20.475 21.8835C20.475 22.0265 20.475 22.1695 20.475 22.3168C20.2397 22.4432 20.1027 22.4391 19.8406 22.4397C19.7499 22.4401 19.6591 22.4406 19.5655 22.4411C19.4656 22.441 19.3658 22.441 19.2629 22.4409C19.1579 22.4413 19.0529 22.4416 18.9448 22.442C18.5965 22.443 18.2482 22.4432 17.8999 22.4434C17.6587 22.4437 17.4175 22.4441 17.1763 22.4445C16.6702 22.4451 16.1642 22.4453 15.6582 22.4452C15.0083 22.4452 14.3584 22.4467 13.7085 22.4486C13.2103 22.4498 12.7121 22.45 12.2139 22.4499C11.9742 22.4501 11.7345 22.4506 11.4949 22.4514C11.1604 22.4524 10.8259 22.4521 10.4914 22.4515C10.3416 22.4524 10.3416 22.4524 10.1888 22.4533C10.098 22.4529 10.0072 22.4524 9.91364 22.452C9.79493 22.452 9.79493 22.452 9.67383 22.4521C9.48102 22.4252 9.48102 22.4252 9.2793 22.2085C9.35006 21.7069 9.44715 21.6534 9.90151 21.6523Z" fill="#6C717B"/>
<path d="M9.90151 14.6104C9.99216 14.6099 10.0828 14.6094 10.1762 14.609C10.3266 14.609 10.3266 14.609 10.48 14.6091C10.5849 14.6087 10.6899 14.6084 10.798 14.608C11.1469 14.607 11.4957 14.6068 11.8446 14.6066C12.0859 14.6063 12.3273 14.6059 12.5686 14.6056C13.0752 14.6049 13.5819 14.6047 14.0885 14.6048C14.7392 14.6048 15.3898 14.6033 16.0405 14.6014C16.5392 14.6002 17.0378 14.6 17.5364 14.6001C17.7764 14.5999 18.0164 14.5995 18.2563 14.5986C18.5913 14.5976 18.9263 14.5979 19.2613 14.5985C19.3613 14.5979 19.4613 14.5973 19.5644 14.5967C19.6553 14.5971 19.7463 14.5976 19.84 14.5981C19.9192 14.598 19.9985 14.5979 20.0802 14.5979C20.2733 14.6248 20.2733 14.6248 20.475 14.8415C20.421 15.2245 20.421 15.2245 20.2733 15.3832C20.1334 15.394 19.993 15.3973 19.8528 15.3977C19.7621 15.3981 19.6715 15.3986 19.5781 15.3991C19.4778 15.399 19.3776 15.399 19.2743 15.3989C19.1694 15.3993 19.0644 15.3996 18.9563 15.4C18.6074 15.401 18.2586 15.4013 17.9097 15.4014C17.6684 15.4017 17.427 15.4021 17.1857 15.4025C16.6791 15.4031 16.1724 15.4033 15.6658 15.4032C15.0151 15.4032 14.3644 15.4047 13.7138 15.4066C13.2151 15.4078 12.7165 15.408 12.2178 15.4079C11.9779 15.4081 11.7379 15.4086 11.4979 15.4094C11.163 15.4104 10.828 15.4101 10.493 15.4095C10.393 15.4101 10.293 15.4107 10.1899 15.4113C10.0989 15.4109 10.008 15.4104 9.91432 15.41C9.79541 15.41 9.79541 15.41 9.67411 15.4101C9.48102 15.3832 9.48102 15.3832 9.2793 15.1665C9.35006 14.6649 9.44715 14.6114 9.90151 14.6104Z" fill="#6C717B"/>
<path d="M9.56427 18.1867C9.68574 18.1868 9.68574 18.1868 9.80966 18.187C9.94863 18.1868 9.94863 18.1868 10.0904 18.1865C10.2441 18.1871 10.2441 18.1871 10.4008 18.1877C10.5081 18.1877 10.6153 18.1877 10.7258 18.1877C11.0822 18.1877 11.4386 18.1886 11.7949 18.1894C12.0413 18.1896 12.2876 18.1898 12.534 18.1899C13.1838 18.1903 13.8336 18.1914 14.4835 18.1926C15.146 18.1937 15.8085 18.1942 16.471 18.1947C17.7721 18.1959 19.0731 18.1977 20.3741 18.2C20.4127 18.3794 20.4461 18.5602 20.475 18.7417C20.3741 18.85 20.3741 18.85 20.19 18.8633C20.0685 18.8632 20.0685 18.8632 19.9446 18.863C19.8057 18.8633 19.8057 18.8633 19.6639 18.8635C19.5102 18.8629 19.5102 18.8629 19.3535 18.8623C19.2462 18.8623 19.139 18.8623 19.0285 18.8623C18.6721 18.8623 18.3157 18.8614 17.9593 18.8606C17.713 18.8604 17.4667 18.8602 17.2203 18.8601C16.5705 18.8597 15.9206 18.8586 15.2708 18.8574C14.6083 18.8563 13.9458 18.8558 13.2832 18.8553C11.9822 18.8541 10.6812 18.8523 9.38016 18.85C9.34161 18.6706 9.30815 18.4898 9.2793 18.3083C9.38016 18.2 9.38016 18.2 9.56427 18.1867Z" fill="#6C717B"/>
<path d="M9.38016 25.2417C11.9098 25.2417 14.4394 25.2417 17.0457 25.2417C17.0956 25.5098 17.0956 25.5098 17.1465 25.7834C16.8554 26.0961 16.6476 26.0275 16.24 26.0281C16.1675 26.0284 16.095 26.0288 16.0203 26.0292C15.78 26.0302 15.5398 26.0295 15.2995 26.0288C15.1329 26.029 14.9664 26.0292 14.7998 26.0294C14.4505 26.0298 14.1011 26.0293 13.7518 26.0283C13.3034 26.027 12.855 26.0278 12.4066 26.0291C12.0626 26.0298 11.7186 26.0296 11.3745 26.029C11.2092 26.0289 11.0438 26.0291 10.8784 26.0296C10.6476 26.0301 10.4167 26.0293 10.1859 26.0281C9.98857 26.0278 9.98857 26.0278 9.78728 26.0275C9.48102 26 9.48102 26 9.2793 25.7834C9.31258 25.6046 9.34587 25.4259 9.38016 25.2417Z" fill="#6C717B"/>
<path d="M18.1552 8.6665C18.527 8.86621 18.7054 9.0164 18.9888 9.32793C19.1111 9.46105 19.1111 9.46105 19.2359 9.59686C19.3203 9.68979 19.4046 9.78273 19.4916 9.87848C20.0179 10.4558 20.542 11.0218 21.1202 11.5396C21.2819 11.6998 21.2819 11.6998 21.4836 12.0248C20.3852 12.0248 19.2868 12.0248 18.1552 12.0248C18.1552 10.9166 18.1552 9.80834 18.1552 8.6665Z" fill="#C4C6CA"/>
<path d="M28.0397 18.1999C28.4086 18.4209 28.6115 18.5796 28.8466 18.9583C28.8916 19.3965 28.842 19.7875 28.6023 20.1504C28.2491 20.539 27.8578 20.8285 27.4345 21.1249C27.2122 20.8625 26.9922 20.5978 26.7726 20.3328C26.7092 20.258 26.6458 20.1832 26.5805 20.1061C26.521 20.0339 26.4616 19.9616 26.4003 19.8872C26.3171 19.7876 26.3171 19.7876 26.2322 19.686C26.1783 19.5939 26.1783 19.5939 26.1233 19.4999C26.2574 19.0678 26.4627 18.9421 26.7978 18.6671C26.9022 18.5796 27.0066 18.492 27.1142 18.4018C27.4671 18.1794 27.6385 18.1412 28.0397 18.1999Z" fill="#C4C6CA"/>
<path d="M19.8698 25.5669C20.2668 25.8985 20.5437 26.1618 20.7776 26.6502C20.4115 26.6502 20.0453 26.6502 19.6681 26.6502C19.65 26.2226 19.6587 25.9354 19.8698 25.5669Z" fill="#C4C6CA"/>
<path d="M20.2733 22.3169C20.3399 22.3169 20.4064 22.3169 20.475 22.3169C20.475 22.3884 20.475 22.4599 20.475 22.5336C20.7826 22.6431 20.7826 22.6431 21.0802 22.5336C21.1135 22.6408 21.1468 22.7481 21.1811 22.8586C20.9148 23.0731 20.6485 23.2876 20.3742 23.5086C20.1881 23.0971 20.1593 22.866 20.2733 22.4252C20.2733 22.3895 20.2733 22.3537 20.2733 22.3169Z" fill="#C4C6CA"/>
<path d="M26.1233 20.5835C26.4549 20.9204 26.7121 21.2352 26.9302 21.6668C26.6972 21.8456 26.4642 22.0243 26.2242 22.2085C26.2242 22.0297 26.2242 21.851 26.2242 21.6668C26.2907 21.6668 26.3573 21.6668 26.4259 21.6668C26.3926 21.4523 26.3593 21.2378 26.325 21.0168C26.2584 21.0168 26.1919 21.0168 26.1233 21.0168C26.1233 20.8738 26.1233 20.7308 26.1233 20.5835Z" fill="#C4C6CA"/>
<path d="M28.0396 18.2001C28.0396 18.2359 28.0396 18.2716 28.0396 18.3084C27.8732 18.3084 27.7068 18.3084 27.5353 18.3084C27.5353 18.4157 27.5353 18.5229 27.5353 18.6334C27.6352 18.6334 27.735 18.6334 27.8379 18.6334C27.8046 18.7407 27.7713 18.8479 27.737 18.9584C27.5373 18.9584 27.3376 18.9584 27.1319 18.9584C27.1129 18.7011 27.1129 18.7011 27.1319 18.4168C27.4783 18.1687 27.6347 18.1808 28.0396 18.2001Z" fill="#C4C6CA"/>
<path d="M21.1811 21.8833C21.2144 21.9548 21.2477 22.0263 21.282 22.1C21.4484 22.0642 21.6148 22.0285 21.7863 21.9916C21.7863 22.0989 21.7863 22.2061 21.7863 22.3166C21.5341 22.4994 21.5341 22.4994 21.282 22.6416C21.1821 22.4629 21.0822 22.2841 20.9794 22.1C21.0459 22.0285 21.1125 21.957 21.1811 21.8833Z" fill="#C4C6CA"/>
<path d="M20.475 11.0498C20.7989 11.1995 20.9843 11.3666 21.2063 11.6592C21.2588 11.7276 21.3113 11.796 21.3655 11.8665C21.424 11.9449 21.424 11.9449 21.4837 12.0248C21.1433 11.9655 20.971 11.9105 20.6768 11.6998C20.6768 11.5926 20.6768 11.4853 20.6768 11.3748C20.5436 11.3391 20.4105 11.3033 20.2733 11.2665C20.3399 11.2665 20.4065 11.2665 20.475 11.2665C20.475 11.195 20.475 11.1235 20.475 11.0498Z" fill="#C4C6CA"/>
<path d="M18.256 8.6665C18.3698 8.76755 18.4832 8.86924 18.5964 8.97119C18.6596 9.02775 18.7228 9.08431 18.7879 9.14258C18.962 9.3165 18.962 9.3165 19.1637 9.6415C18.724 9.6415 18.5627 9.42198 18.256 9.09984C18.256 8.95684 18.256 8.81384 18.256 8.6665Z" fill="#C4C6CA"/>
<path d="M28.6448 18.7417C28.8466 18.9584 28.8466 18.9584 28.8592 19.2969C28.855 19.3997 28.8509 19.5025 28.8466 19.6084C28.7467 19.6084 28.6469 19.6084 28.544 19.6084C28.4198 19.3416 28.4359 19.1448 28.4431 18.85C28.5097 18.8143 28.5763 18.7785 28.6448 18.7417Z" fill="#C4C6CA"/>
<path d="M19.8698 25.5669C20.0029 25.7099 20.1361 25.8529 20.2732 26.0002C20.2399 26.1075 20.2067 26.2147 20.1724 26.3252C20.0392 26.2895 19.9061 26.2537 19.7689 26.2169C19.8022 26.0024 19.8355 25.7879 19.8698 25.5669Z" fill="#C4C6CA"/>
<path d="M27.838 20.0415C28.0876 20.1488 28.0876 20.1488 28.3423 20.2582C28.2036 20.4748 28.2036 20.4748 28.0397 20.6915C27.9731 20.6915 27.9065 20.6915 27.838 20.6915C27.838 20.62 27.838 20.5485 27.838 20.4748C27.7714 20.4391 27.7048 20.4033 27.6362 20.3665C27.7028 20.2593 27.7694 20.152 27.838 20.0415Z" fill="#C4C6CA"/>
<path d="M20.8784 25.4585C21.2068 25.4963 21.2838 25.5691 21.5088 25.8444C21.5671 25.9316 21.6253 26.0187 21.6853 26.1085C21.1143 25.9485 21.1143 25.9485 20.9415 25.6616C20.9207 25.5946 20.8999 25.5276 20.8784 25.4585Z" fill="#C4C6CA"/>
</svg>
