<svg width="27" height="26" viewBox="0 0 27 26" fill="none" xmlns="http://www.w3.org/2000/svg">
<path opacity="0.4" d="M18.9002 15.8016V7.60156C18.9002 5.39242 17.1093 3.60156 14.9002 3.60156H6.7002C4.49106 3.60156 2.7002 5.39242 2.7002 7.60156V15.8016C2.7002 18.0107 4.49105 19.8016 6.70019 19.8016H14.9002C17.1093 19.8016 18.9002 18.0107 18.9002 15.8016Z" fill="#6C717B"/>
<path fill-rule="evenodd" clip-rule="evenodd" d="M6.52539 9.00117C6.52539 8.62838 6.8276 8.32617 7.20039 8.32617H14.4004C14.7732 8.32617 15.0754 8.62838 15.0754 9.00117C15.0754 9.37396 14.7732 9.67617 14.4004 9.67617H7.20039C6.8276 9.67617 6.52539 9.37396 6.52539 9.00117Z" fill="#6C717B"/>
<path fill-rule="evenodd" clip-rule="evenodd" d="M6.52539 12.6008C6.52539 12.228 6.8276 11.9258 7.20039 11.9258H14.4004C14.7732 11.9258 15.0754 12.228 15.0754 12.6008C15.0754 12.9736 14.7732 13.2758 14.4004 13.2758H7.20039C6.8276 13.2758 6.52539 12.9736 6.52539 12.6008Z" fill="#6C717B"/>
<path fill-rule="evenodd" clip-rule="evenodd" d="M6.52539 16.2004C6.52539 15.8276 6.8276 15.5254 7.20039 15.5254H10.8004C11.1732 15.5254 11.4754 15.8276 11.4754 16.2004C11.4754 16.5732 11.1732 16.8754 10.8004 16.8754H7.20039C6.8276 16.8754 6.52539 16.5732 6.52539 16.2004Z" fill="#6C717B"/>
<path d="M12.6002 1.80078H9.0002C8.00608 1.80078 7.2002 2.60667 7.2002 3.60078C7.2002 4.59489 8.00608 5.40078 9.0002 5.40078H12.6002C13.5943 5.40078 14.4002 4.59489 14.4002 3.60078C14.4002 2.60667 13.5943 1.80078 12.6002 1.80078Z" fill="#6C717B"/>
<path opacity="0.4" fill-rule="evenodd" clip-rule="evenodd" d="M17.756 20.7087C17.9168 20.8391 17.9415 21.0753 17.8111 21.2362L16.1898 23.2362C16.0593 23.397 15.8232 23.4217 15.6623 23.2913C15.5014 23.1609 15.4767 22.9247 15.6071 22.7639L17.2285 20.7639C17.3589 20.603 17.5951 20.5783 17.756 20.7087ZM23.0409 20.7087C23.2017 20.5783 23.4379 20.603 23.5683 20.7639L25.1897 22.7639C25.3202 22.9247 25.2955 23.1609 25.1346 23.2913C24.9737 23.4217 24.7376 23.3971 24.6072 23.2362L22.9857 21.2362C22.8553 21.0753 22.88 20.8391 23.0409 20.7087Z" fill="#6C717B"/>
<path opacity="0.4" fill-rule="evenodd" clip-rule="evenodd" d="M18.3404 12.8498C18.4233 13.0396 18.3368 13.2607 18.147 13.3437C17.1518 13.7789 16.3064 14.4941 15.7108 15.3899C15.5961 15.5624 15.3633 15.6092 15.1908 15.4946C15.0184 15.3799 14.9715 15.1471 15.0862 14.9747C15.7607 13.9602 16.7181 13.1499 17.8465 12.6565C18.0363 12.5735 18.2574 12.6601 18.3404 12.8498ZM22.4566 12.8498C22.5396 12.6601 22.7607 12.5735 22.9504 12.6565C24.0788 13.1499 25.0362 13.9602 25.7108 14.9747C25.8254 15.1471 25.7786 15.3799 25.6061 15.4946C25.4336 15.6092 25.2009 15.5624 25.0862 15.3899C24.4906 14.4941 23.6451 13.7789 22.6499 13.3437C22.4602 13.2607 22.3736 13.0396 22.4566 12.8498Z" fill="#6C717B"/>
<path fill-rule="evenodd" clip-rule="evenodd" d="M20.3984 23C22.8837 23 24.8984 20.9853 24.8984 18.5C24.8984 16.0147 22.8837 14 20.3984 14C17.9132 14 15.8984 16.0147 15.8984 18.5C15.8984 20.9853 17.9132 23 20.3984 23ZM20.6482 16.4861C20.6482 16.2962 20.4803 16.1422 20.2732 16.1422C20.0661 16.1422 19.8982 16.2962 19.8982 16.4861V18.7791C19.8982 18.8941 19.9609 19.0014 20.0652 19.0652L21.5652 19.9824C21.7375 20.0878 21.9703 20.0451 22.0852 19.887C22.2001 19.729 22.1535 19.5154 21.9812 19.41L20.6482 18.595V16.4861Z" fill="#6C717B"/>
</svg>
