<?xml version="1.0" encoding="utf-8"?>
<!-- Generator: Adobe Illustrator 27.5.0, SVG Export Plug-In . SVG Version: 6.00 Build 0)  -->
<svg version="1.1" id="Layer_1" xmlns="http://www.w3.org/2000/svg" xmlns:xlink="http://www.w3.org/1999/xlink" x="0px" y="0px"
	 viewBox="0 0 24 24" style="enable-background:new 0 0 24 24;" xml:space="preserve">
<style type="text/css">
	.st0{fill-rule:evenodd;clip-rule:evenodd;fill:#6C717B;}
	.st1{fill:#6C717B;}
	.st2{opacity:0.4;fill:#6C717B;enable-background:new    ;}
</style>
<path class="st0" d="M12.8,12c0-0.4,0.3-0.8,0.8-0.8h8c0.4,0,0.8,0.3,0.8,0.8s-0.3,0.8-0.8,0.8h-8C13.1,12.8,12.8,12.4,12.8,12z"/>
<path class="st0" d="M12.8,7c0-0.4,0.3-0.8,0.8-0.8h8c0.4,0,0.8,0.3,0.8,0.8c0,0.4-0.3,0.8-0.8,0.8h-8C13.1,7.8,12.8,7.4,12.8,7z"/>
<path class="st0" d="M14.8,17c0-0.4,0.3-0.8,0.8-0.8h6c0.4,0,0.8,0.3,0.8,0.8s-0.3,0.8-0.8,0.8h-6C15.1,17.8,14.8,17.4,14.8,17z"/>
<circle class="st1" cx="6.5" cy="8" r="3"/>
<ellipse class="st2" cx="6.5" cy="15.5" rx="5" ry="3.5"/>
</svg>
