<svg width="24" height="24" viewBox="0 0 24 24" fill="none" xmlns="http://www.w3.org/2000/svg">
<path opacity="0.4" fill-rule="evenodd" clip-rule="evenodd" d="M9.37153 14.9172C9.65757 15.2168 9.64659 15.6916 9.347 15.9776L3.5184 21.5426C3.21881 21.8286 2.74406 21.8176 2.45802 21.518C2.17198 21.2185 2.18297 20.7437 2.48256 20.4577L8.31116 14.8927C8.61075 14.6067 9.08549 14.6176 9.37153 14.9172Z" fill="#6C717B"/>
<path fill-rule="evenodd" clip-rule="evenodd" d="M17.905 2.46967C18.1979 2.17678 18.6728 2.17678 18.9657 2.46967L20.3666 3.87058C20.3712 3.87494 20.3757 3.87938 20.3802 3.88388C20.3847 3.88839 20.3892 3.89294 20.3935 3.89753L21.7941 5.2981C22.087 5.59099 22.087 6.06586 21.7941 6.35876C21.5012 6.65165 21.0264 6.65165 20.7335 6.35876L19.8497 5.47504L17.5518 7.77297C17.2589 8.06587 16.784 8.06587 16.4912 7.77297C16.1983 7.48008 16.1983 7.00521 16.4912 6.71231L18.7891 4.41438L17.905 3.53033C17.6121 3.23744 17.6121 2.76256 17.905 2.46967Z" fill="#6C717B"/>
<path opacity="0.4" d="M13.4852 6.53555L8.29975 11.721C7.99376 12.027 7.79526 12.424 7.73407 12.8524L7.49836 14.5023C7.3098 15.8222 8.44117 16.9536 9.76111 16.765L11.411 16.5293C11.8394 16.4681 12.2364 16.2696 12.5424 15.9636L17.7278 10.7782C18.5089 9.99714 18.5089 8.73081 17.7278 7.94976L16.3136 6.53555C15.5326 5.7545 14.2662 5.7545 13.4852 6.53555Z" fill="#6C717B"/>
<path d="M9.76092 16.7652L11.4108 16.5295C11.8392 16.4683 12.2362 16.2698 12.5422 15.9638L16.3137 12.1925L9.24267 10.7783L8.29956 11.7212C7.99357 12.0272 7.79508 12.4241 7.73388 12.8525L7.49817 14.5024C7.30961 15.8224 8.44098 16.9537 9.76092 16.7652Z" fill="#6C717B"/>
</svg>
