<svg width="188" height="154" viewBox="0 0 188 154" fill="none" xmlns="http://www.w3.org/2000/svg">
<path d="M127.573 67.33C124.342 70.6247 130.151 66.4844 126.328 69.068C114.748 77.9078 97.4221 90.4602 94.3282 92.6407L93.8567 92.9943L93.4147 93.3479C92.4917 93.9893 91.5042 94.5326 90.4681 94.9686C82.1882 88.6334 74.6155 84.5376 69.5179 85.451C63.8568 87.1853 58.6461 90.1427 54.2546 94.114C36.1283 82.7673 18.9611 69.956 2.92505 55.8084C15.2123 34.6813 62.2104 0 74.4093 0C86.6082 0 109.916 17.9447 116.31 25.871C117.637 22.9414 110.918 44.1268 112.955 41.6383C120.94 64.1208 120.485 61.1286 127.573 67.33Z" fill="#111111"/>
<path d="M107.881 153.691C89.4648 153.691 61.5312 153.013 19.0119 151.245L9.99536 150.891C9.54382 150.884 9.09865 150.784 8.68788 150.596C8.27711 150.408 7.90964 150.138 7.60863 149.801C2.12798 144.144 -0.848104 101.064 0.212668 67.768C0.212668 67.1819 0.445577 66.6198 0.860021 66.2054C1.27447 65.7909 1.8365 65.5581 2.42261 65.5581C3.00872 65.5581 3.57084 65.7909 3.98529 66.2054C4.39973 66.6198 4.63255 67.1819 4.63255 67.768C3.39498 105.838 7.28448 141.757 10.5257 146.324L19.1593 146.678C111.829 150.538 136.374 149.182 140.264 147.267C141.885 142.052 141.325 107.4 139.94 76.5489C139.928 76.2586 139.974 75.9689 140.074 75.6962C140.174 75.4236 140.327 75.1733 140.524 74.9598C140.721 74.7464 140.958 74.5738 141.222 74.4521C141.486 74.3304 141.771 74.2619 142.061 74.2505C142.355 74.226 142.649 74.2628 142.928 74.3583C143.206 74.4539 143.461 74.6063 143.677 74.8058C143.893 75.0053 144.066 75.2475 144.183 75.5172C144.301 75.7868 144.361 76.0779 144.36 76.3721C144.861 87.4512 147.306 142.994 144.153 149.477C143.358 151.363 142.268 153.691 107.881 153.691Z" fill="#111111"/>
<path d="M134.666 140.081C134.353 140.078 134.043 140.008 133.759 139.876C133.474 139.744 133.221 139.553 133.016 139.315C132.78 139.05 109.65 112.796 88.9941 96.8254C78.0328 88.4276 72.4932 87.2489 69.7823 87.7204C67.5135 88.1329 63.182 89.8714 55.5209 95.9414C41.2028 108.014 28.3468 121.72 17.2152 136.781C16.8636 137.25 16.34 137.56 15.7598 137.643C15.1796 137.726 14.5901 137.575 14.1213 137.223C13.6524 136.871 13.3424 136.348 13.2595 135.768C13.1766 135.187 13.3276 134.598 13.6793 134.129C25.0073 118.805 38.113 104.878 52.7216 92.6412C59.4398 87.3079 64.9205 84.2434 68.9573 83.5068C74.2612 82.5933 81.6865 85.8346 91.646 93.4662C112.655 109.555 136.081 136.28 136.316 136.545C136.592 136.864 136.77 137.255 136.83 137.672C136.891 138.089 136.831 138.515 136.657 138.899C136.484 139.283 136.204 139.609 135.852 139.84C135.499 140.07 135.087 140.195 134.666 140.199V140.081Z" fill="#111111"/>
<path d="M152.371 79.1749C141.945 78.9324 132.006 74.7163 124.585 67.3885C117.037 60.6066 112.253 51.2805 111.149 41.1934C110.705 36.2412 111.327 31.2514 112.974 26.56C114.621 21.8686 117.254 17.5845 120.696 13.9964C135.075 -1.3848 157.587 -1.26692 174.235 14.2911C190.883 29.849 192.504 52.302 178.095 67.6832C174.842 71.2819 170.874 74.1626 166.445 76.1412C162.016 78.1199 157.222 79.1531 152.371 79.1749ZM146.478 7.07193C142.238 7.08027 138.045 7.97288 134.169 9.69281C130.293 11.4128 126.818 13.9222 123.966 17.0609C120.926 20.1784 118.6 23.9199 117.15 28.0259C115.7 32.132 115.16 36.5044 115.569 40.8398C116.588 49.8419 120.876 58.1566 127.62 64.2062C142.353 77.9963 162.272 78.232 174.765 64.7072C187.259 51.1823 185.874 31.3813 171.112 17.5618C164.501 11.1056 155.687 7.39869 146.449 7.18977L146.478 7.07193Z" fill="#111111"/>
<path d="M153.926 22.2812V56.4521H146.549V31.1995L139.282 33.476V27.4679L153.248 22.2812H153.926Z" fill="#111111"/>
</svg>
