<?xml version="1.0" encoding="utf-8"?>
<!-- Generator: Adobe Illustrator 27.5.0, SVG Export Plug-In . SVG Version: 6.00 Build 0)  -->
<svg version="1.1" id="Layer_1" xmlns="http://www.w3.org/2000/svg" xmlns:xlink="http://www.w3.org/1999/xlink" x="0px" y="0px"
	 viewBox="0 0 24 24" style="enable-background:new 0 0 24 24;" xml:space="preserve">
<style type="text/css">
	.st0{fill:#B6B6B7;}
</style>
<g>
	<g>
		<path class="st0" d="M16.7,23.6H7.2c-2.9,0-5.2-2.3-5.2-5.2v-7.1c0-2.4,1.6-4.5,3.9-5.1C6.1,3,8.7,0.4,12,0.4
			c1.7,0,3.2,0.6,4.3,1.8c1,1.1,1.6,2.5,1.7,4c2.3,0.7,3.9,2.8,3.9,5.1v7.1C21.9,21.3,19.6,23.6,16.7,23.6z M6.9,7L6.9,7L6.5,7.1
			C4.5,7.5,3,9.2,3,11.3v7.1c0,2.3,1.9,4.2,4.2,4.2h9.5c2.3,0,4.2-1.9,4.2-4.2v-7.1c0-2-1.5-3.8-3.5-4.2L17,7H6.9z M6.9,6H17
			c-0.1-1.2-0.6-2.2-1.4-3.1c-1-1-2.2-1.5-3.6-1.5C9.4,1.4,7.2,3.4,6.9,6z M12,17.7c-1.6,0-2.9-1.3-2.9-2.9s1.3-2.9,2.9-2.9
			c1.6,0,2.9,1.3,2.9,2.9S13.6,17.7,12,17.7z M12,12.9c-1,0-1.9,0.9-1.9,1.9s0.9,1.9,1.9,1.9c1,0,1.9-0.9,1.9-1.9S13,12.9,12,12.9z"
			/>
	</g>
</g>
</svg>
