<svg width="209" height="187" viewBox="0 0 209 187" fill="none" xmlns="http://www.w3.org/2000/svg">
<path d="M99.9998 47.4834C65.0398 47.4834 36.6665 75.8567 36.6665 110.817C36.6665 145.777 65.0398 174.15 99.9998 174.15C134.96 174.15 163.333 145.777 163.333 110.817C163.333 75.8567 134.96 47.4834 99.9998 47.4834ZM125.523 99.4168L95.9464 128.93C95.0597 129.88 93.8564 130.324 92.5897 130.324C91.3864 130.324 90.1831 129.88 89.2331 128.93L74.4765 114.174C72.6398 112.337 72.6398 109.297 74.4765 107.46C76.3132 105.623 79.3532 105.623 81.1898 107.46L92.5897 118.86L118.81 92.7035C120.647 90.8035 123.686 90.8035 125.523 92.7035C127.36 94.5402 127.36 97.5168 125.523 99.4168Z" fill="#0AAF60"/>
<circle cx="137" cy="4.81689" r="3" fill="#FF21FB" fill-opacity="0.9"/>
<circle cx="29" cy="37.8169" r="5" fill="#FC9E1C" fill-opacity="0.45"/>
<path d="M175.553 48.291L171.435 44.4508L166.51 47.1807L168.89 42.0775L164.772 38.2373L170.36 38.9236L172.74 33.8204L173.814 39.3477L179.403 40.0339L174.478 42.7637L175.553 48.291Z" fill="#480CA7" fill-opacity="0.75"/>
<rect x="69.5591" y="9.35791" width="14.8698" height="3.44956" transform="rotate(-39 69.5591 9.35791)" fill="#C9FCBE" fill-opacity="0.45"/>
<circle cx="3.85659" cy="76.6735" r="3" transform="rotate(-20.3685 3.85659 76.6735)" fill="#F54721" fill-opacity="0.65"/>
<path d="M207.012 123.804L204.285 124.553L202.272 122.566L202.987 119.83L205.714 119.08L207.727 121.067L207.012 123.804Z" fill="#F62584" fill-opacity="0.6"/>
<path d="M45.6843 169.708L46.7934 171.334L48.4545 170.279L47.6008 172.052L49.3458 172.963L47.383 173.11L47.4668 175.077L46.3577 173.451L44.6966 174.507L45.5503 172.733L43.8053 171.822L45.7681 171.675L45.6843 169.708Z" fill="#F54721" fill-opacity="0.75"/>
</svg>
